<?xml version="1.0" encoding="utf-8"?>
<!-- Generator: Adobe Illustrator 24.2.1, SVG Export Plug-In . SVG Version: 6.00 Build 0)  -->
<svg version="1.1" id="Layer_1" xmlns="http://www.w3.org/2000/svg" xmlns:xlink="http://www.w3.org/1999/xlink" x="0px" y="0px"
	 viewBox="0 0 420.94 405.38" style="enable-background:new 0 0 420.94 405.38;" xml:space="preserve" style="margin-top:30vh;position:absolute;right:0;" >
<style type="text/css">
	.st0{fill:#BDDDF4;}
	.st1{fill:#FFFFFF;}
	.st2{fill:#8AC0E2;}
	.st3{fill:#9DCCEC;}
	.st4{fill:#77B2D4;}
	.st5{fill:#FFECB2;}
	.st6{fill:#D7BA75;}
	.st7{fill:#349999;}
	.st8{fill:#7DCDD8;}
	.st9{fill:#50BDC6;}
	.st10{fill:#164453;}
	.st11{fill:#DD8765;}
	.st12{fill:#D14F4F;}
	.st13{fill:#E66361;}
	.st14{fill:#1B4951;}
	.st15{fill:#F3A17A;}
	.st16{fill:#DE784E;}
	.st17{fill:#ED7D66;}
	.st18{fill:none;stroke:#1B4951;stroke-width:0.5865;stroke-linecap:round;stroke-miterlimit:10;}
	.st19{fill:#11393D;}
	.st20{fill:#A673A0;}
	.st21{fill:#C18DB7;}
	.st22{fill:#FEC251;}
	.st23{fill:#338088;}
	.st24{fill:#195C6B;}
	.st25{fill:none;stroke:#1B4951;stroke-width:0.6818;stroke-linecap:round;stroke-miterlimit:10;}
	.st26{fill:#4B9FA3;}
	.st27{fill:#F2AE3F;}
</style>
<g>
	<path class="st0" d="M344.8,0.13c-32.78-1.03-62.45,4.24-92.78,16.48c-8.68,3.5-17.18,8.19-23.04,15.48
		c-14.81,18.43,0.32,31,7.33,48.02c1.55,3.77,2.45,8.01,1.35,11.94c-1.29,4.61-5.18,8.14-9.52,10.15
		c-19.58,9.07-42.22,0.24-62.57,5.05c-17.25,4.07-31.75,12.83-34.9,31.09c-2.9,16.81,2.46,35.37-10.33,49.27
		c-22.16,24.09-61.16,26.06-81.63,51.85C-5.73,295.42,62.26,362.2,105.89,392.4c49.62,34.36,110.2,51.03,169.72,56.79
		c28.4,2.75,57.07,2.99,85.51,0.6c32.14-2.7,65.12-7.35,96.1-16.72c0,0-8-420.36-8-420.37c-0.96-8.84-60.59-9.84-67.49-10.35
		C369.64,1.47,357.25,0.52,344.8,0.13z"/>
	<path class="st1" d="M266.12,52.42c0,0,1.74-8.01,10.5-7.58c8.76,0.43,8.65,9.84,8.65,9.84s2.68-3.39,6.48,0
		c3.79,3.39,3.27,9.04,3.27,9.04s2.66-3.39,4.98,0c2.32,3.39,21.1,5.27,21.1,5.27s-17.28-0.75-19.73,2.64
		c-2.45,3.39-11.38,1.56-11.38,1.56s-9.01,7.47-16.79,3.71c-7.79-3.77-9.26-3.71-9.26-3.71s-10.9,1.83-14.69-1.56
		c-3.79-3.39,0-6.78,0-6.78s-7.18-0.89-6.8-3.46c0.38-2.57,12.05-4.07,12.05-4.07S255.52,50.16,266.12,52.42z"/>
	<path class="st1" d="M416.7,106.78c0,0-2.31-10.64-13.94-10.07c-11.64,0.57-11.49,13.07-11.49,13.07s-3.56-4.5-8.6,0
		c-5.04,4.5-4.34,12-4.34,12s-3.54-4.5-6.62,0c-3.08,4.5-28.02,7-28.02,7s22.95-1,26.19,3.5c3.25,4.5,15.11,2.07,15.11,2.07
		s11.96,9.93,22.3,4.93s12.29-4.93,12.29-4.93s14.47,2.43,19.51-2.07c5.04-4.5,0-9,0-9s9.54-1.18,9.04-4.59
		c-0.5-3.41-16-5.41-16-5.41S430.78,103.78,416.7,106.78z"/>
	<path class="st1" d="M212.56,117.82c0,0-0.83-3.84-5.04-3.64s-4.15,4.72-4.15,4.72s-1.29-1.63-3.11,0
		c-1.82,1.63-1.57,4.33-1.57,4.33s-1.28-1.63-2.39,0c-1.11,1.63-10.12,2.53-10.12,2.53s8.29-0.36,9.46,1.26
		c1.17,1.63,5.46,0.75,5.46,0.75s4.32,3.58,8.06,1.78c3.73-1.81,4.44-1.78,4.44-1.78s5.23,0.88,7.05-0.75c1.82-1.63,0-3.25,0-3.25
		s3.44-0.43,3.26-1.66c-0.18-1.23-5.78-1.95-5.78-1.95S217.64,116.73,212.56,117.82z"/>
	<path class="st2" d="M291.68,199.33c0,0,3.9-39.32-23.74-43.28c-27.64-3.96-40.78,27.6-40.78,27.6s5.59-67.98-25.63-67.97
		c-31.22,0.01-29.57,68.96-29.57,68.96s-41.23,6.42-44.94,37.89c-3.71,31.47-8.16,158.6-8.16,158.6h167.89L291.68,199.33z"/>
	<path class="st3" d="M425.2,249.57c0,0-3.51-30.3-32.65-19.86c0,0,13.23-69.36-19.56-79.28c-32.79-9.92-36.03,29.65-36.03,29.65
		s-34.23-6.49-47.48,17.41c-13.26,23.9-13.9,171.1-13.9,171.1l149.63-4.46V249.57z"/>
	<path class="st4" d="M41,304.36c0,0,2.79-24.04,25.91-15.75c0,0-10.49-55.03,15.52-62.91c26.01-7.87,28.59,23.53,28.59,23.53
		s27.16-5.15,37.68,13.81c10.52,18.97,11.03,135.76,11.03,135.76L41,395.26V304.36z"/>
	<path class="st0" d="M460.53,342.04c0,0-316.27-0.77-327.47,15.57c-11.2,16.34-103.78,15.11-129.15,43.1
		c-25.38,28,456.62,14,456.62,14V342.04z"/>
	<path class="st3" d="M435.42,369.66H205.39c-1.81,0-3.28-1.47-3.28-3.28l0,0c0-1.81,1.47-3.28,3.28-3.28h230.03
		c1.81,0,3.28,1.47,3.28,3.28l0,0C438.7,368.19,437.23,369.66,435.42,369.66z"/>
	<path class="st3" d="M192.4,388.3H99.46c-1.81,0-3.28-1.47-3.28-3.28l0,0c0-1.81,1.47-3.28,3.28-3.28h92.94
		c1.81,0,3.28,1.47,3.28,3.28l0,0C195.68,386.84,194.22,388.3,192.4,388.3z"/>
	<!-- <g>
		<path class="st5" d="M99.71,89.35c0,0,4.07-7.07,5.96-8.25c1.89-1.18,9.9,11.79,9.9,14.38c0,2.59-3.61,10.81-4.87,10.59
			C109.44,105.85,100.59,93.35,99.71,89.35z"/>
		<path class="st6" d="M105.9,83.06c0,0,1.76,9.83,2.7,11.41c0.94,1.57,5.41,1.64,5.41,1.64s-4.51,0.65-5.78-0.93
			C106.98,93.61,105.9,83.06,105.9,83.06z"/>
		<path class="st6" d="M101.6,89.65c0,0,4.13,0.64,5.66,1.46l0.38,0.77C107.64,91.88,107.32,91.36,101.6,89.65z"/>
		<path class="st6" d="M110.45,96.14c0,0,0.45,3.23,0.25,7.41c0,0,0.39-3.45,0.27-7.41H110.45z"/>
	</g> -->
	<!-- bird -->
	<!-- <g>
		<path class="st7" d="M96.57,78.45c0,0,5.88-19.24,16.33-23.28c0,0-1.05-1.43-3.51,0.46c0,0-0.57-1.21-1.86-0.88
			c-1.29,0.33-3.54,2.14-3.54,2.14s0.25-2.6-1.6-1.55s-2.84,2.89-2.84,2.89s-0.94-2.01-1.82-0.87c-0.88,1.14-1.67,3.5-1.67,3.5
			s-0.55-2.89-1.51-1.77c-0.96,1.12-0.86,4.04-0.86,4.04s-1.01-2.62-1.95-1.62c-0.94,1.01,0.06,5.39,0.06,5.39s-1.63-1.39-1.31,2.18
			c0.33,3.56,2.82,4.7,2.82,4.7s-1.61-1.31-1.75,0.47C91.42,76.03,94.54,79.47,96.57,78.45z"/>
		<path class="st8" d="M101.59,76.02c1.85-0.35,4.15,0.64,4.38,2.7c0.17,1.46-0.88,2.85-2.38,2.93c-1.57,0.08-2.66-1.54-4.2-1.32
			c-2.15,0.3-4.21,3.22-10.46,2.67c-6.25-0.55-8.32-8.08-8.79-10.67c-0.47-2.59-5.15-7.01-6.61-7.21c-1.46-0.21-0.91-2.43,1.36-1.39
			c0,0-1.45-1.85-0.88-2.69c0.57-0.84,2.35-0.13,2.35-0.13s-0.75-1.99-0.08-2.23c0.66-0.25,2.55,1.43,2.55,1.43
			s-0.71-2.88,0.43-2.55c1.13,0.33,1.24,2.3,1.24,2.3s1.19-1.2,1.54-0.58c0.36,0.62-1.64,5.02,1.3,9.84
			c2.11,3.46,6.66,5.39,10.38,6.43c1.55,0.43,3.16,0.74,4.78,0.79c0.68,0.02,1.37,0,2.04-0.11
			C100.89,76.16,101.24,76.08,101.59,76.02z"/>
		<path class="st9" d="M94.14,78.95c0,0-5.41-19.38,1.21-28.41c0,0-1.66-0.64-2.71,2.28c0,0-1.13-0.71-2.04,0.26
			c-0.91,0.97-1.83,3.71-1.83,3.71s-1.19-2.32-2.18-0.44c-0.99,1.88-0.84,3.97-0.84,3.97s-1.87-1.19-2,0.25
			c-0.13,1.44,0.48,3.85,0.48,3.85s-2.02-2.14-2.22-0.68c-0.21,1.46,1.45,3.86,1.45,3.86s-2.26-1.67-2.51-0.32
			c-0.25,1.35,2.95,4.51,2.95,4.51s-2.12-0.29,0.07,2.54c2.2,2.83,4.9,2.44,4.9,2.44s-2.06-0.23-1.22,1.34
			C88.49,79.69,92.98,80.9,94.14,78.95z"/>
		<path class="st9" d="M105.83,79.92c0,0,0.9,1.72,0.72,1.91c-0.18,0.19-1.64-0.47-1.64-0.47s-0.09,1.67-0.32,1.5
			c-0.23-0.17-1-1.22-1-1.22S105.26,80.98,105.83,79.92z"/>
		<path class="st7" d="M104.23,79.11c0.09,0.23-0.03,0.49-0.26,0.58c-0.23,0.09-0.49-0.03-0.58-0.26c-0.09-0.23,0.03-0.49,0.26-0.58
			C103.88,78.76,104.14,78.88,104.23,79.11z"/>
	</g> -->
	<!-- person second -->
	<g id="person-second">
		<path class="st1" d="M282.13,365.59v-2.92c0-2.71-2.53-8.48-2.53-10.28c0-1.8-6.98,1.47-6.98,1.47s-0.06,3.59-2.4,6.11
			c-1.5,1.62-1.75,4.07-1.73,5.63H282.13z"/>
		<path class="st1" d="M232.26,365.59c0-6.61-2.52-12.98-2.52-12.98s-6.34-2.97-7.64,2.06c-1.29,5.03-7.76,6.18-11.06,6.61
			c-2.41,0.31-2.68,2.92-2.65,4.31H232.26z"/>
		<path class="st10" d="M267.68,236.02l13.46,121.58c0,0-3.72-3.08-9.06-0.89c0,0-21.27-92.48-30.67-100.67
			C232.02,247.85,267.68,236.02,267.68,236.02z"/>
		<path class="st11" d="M230.62,154.61c-8.03,4.58-18.6,36.48-18.24,46.9c0.37,10.41,8.04,30.51,8.04,30.51l5.17-6.92
			c0,0-3.77-24.73-3.6-25.96c0.17-1.23,8.62-24.61,8.62-24.61V154.61z"/>
		<path class="st12" d="M234.12,152.12c-5.02,2.74-10.32,4.59-17.43,26.27c0,0,3.73,7.16,10.24,7.91
			C233.44,187.06,234.12,152.12,234.12,152.12z"/>
		<path class="st10" d="M225.97,213.94c0,0-7.65,13.32-7.26,18.95c0.39,5.63,1.58,19.65,1.58,19.65l49.12,1.95
			c0,0,0.2-32.38-4.66-38.44C259.88,210,225.97,213.94,225.97,213.94z"/>
		<path class="st13" d="M222,221.72c0,0,2.22-59.23,6.47-64.75c4.25-5.52,10.65-8.21,23.25-7.62c12.6,0.59,22.06,8.28,23.25,14
			c1.18,5.72-6.75,61.4-6.75,61.4S235.18,242.95,222,221.72z"/>
		<g>
			<path class="st14" d="M244.83,118.71c0,0-4.88,3.59-2.79,11.49c2.09,7.9,6.68-9.57,6.68-9.57L244.83,118.71z"/>
			<path class="st15" d="M261.23,133.97c-3.4,12.66-17.35,10.54-19.19,5c-0.59-1.78-0.77-4.76-0.5-7.89
				c0.06-0.71,0.14-1.42,0.24-2.14c0.71-4.82,2.49-9.41,5.43-9.93C257.47,117.19,264.63,121.31,261.23,133.97z"/>
			<path class="st14" d="M251.71,128.86c-0.13,0.72-0.56,1.24-0.96,1.17c-0.4-0.07-0.62-0.71-0.49-1.43
				c0.13-0.72,0.56-1.24,0.96-1.17C251.62,127.51,251.84,128.15,251.71,128.86z"/>
			<path class="st14" d="M245.05,128.22c-0.13,0.72-0.56,1.24-0.96,1.17c-0.4-0.07-0.62-0.71-0.49-1.43
				c0.13-0.72,0.56-1.24,0.96-1.17C244.96,126.86,245.18,127.5,245.05,128.22z"/>
			<path class="st16" d="M246.04,129.56c0,0-2,2.47-3.2,1.82c-1.2-0.66-0.79,2.55,2.94,2.17
				C245.77,133.54,246.99,132.02,246.04,129.56z"/>
			<path class="st17" d="M254.08,131.61c0.08,0.59-0.47,1.15-1.21,1.25c-0.74,0.09-1.41-0.31-1.48-0.91
				c-0.08-0.59,0.47-1.15,1.21-1.25C253.34,130.61,254.01,131.01,254.08,131.61z"/>
			<path class="st17" d="M243.15,130.67c-0.25,0.52-0.96,0.7-1.62,0.41c0.06-0.71,0.14-1.42,0.24-2.14
				c0.21,0.01,0.43,0.06,0.64,0.16C243.09,129.43,243.42,130.13,243.15,130.67z"/>
			<path class="st18" d="M250.81,123.95c0,0,1.57,0.02,2.43,1.02"/>
			<path class="st18" d="M245.18,123.78c0,0-1.55-0.25-1.75,0.59"/>
			<path class="st14" d="M260.27,119.17c0,0-5.22-4.82-11.54-3.68c-6.32,1.14-6.29,4.19-3.52,6.22c2.77,2.03,13.02,3.13,13.02,3.13
				l0.7,9.85l-1.75,4.52l-0.11,1.53c0,0,5.11-0.81,6.91-9.85C265.78,121.86,260.27,119.17,260.27,119.17z"/>
			<path class="st15" d="M258.59,133.14c0,0,2.54-2.07,4.21-0.21c1.67,1.86-2.42,5.77-4.49,5.22
				C256.24,137.6,258.59,133.14,258.59,133.14z"/>
			<path class="st14" d="M243.89,135.27c0,0,3.03,0.57,4.18,0.41c1.16-0.16,0,1.49-2.37,1.29
				C243.33,136.77,243.89,135.27,243.89,135.27z"/>
			<path class="st13" d="M263.29,133.57c0,0,2.18-3.72-2.04-9.2c-0.12-0.16-0.25-0.32-0.38-0.48c-4.73-5.74-15.1-7.55-15.1-7.55
				s3.83-6.33,10.79-4.95c3.99,0.79,6.84,2.71,8.63,5.44c1.34,2.02,2.09,4.47,2.31,7.23C268.02,130.54,263.29,133.57,263.29,133.57z
				"/>
			<path class="st1" d="M265.19,116.83c-0.73,3.21-3.94,7.54-3.94,7.54c-0.12-0.16-0.25-0.32-0.38-0.48
				c-4.73-5.74-15.1-7.55-15.1-7.55s3.83-6.33,10.79-4.95C260.55,112.18,263.4,114.1,265.19,116.83z"/>
			<path class="st12" d="M243.55,118.3c0,0-3.7-4.66-1.32-6.79c2.38-2.13,10.52,0.13,14.32,2.75c3.8,2.63,4.31,9.62,4.31,9.62
				S248.52,113.89,243.55,118.3z"/>
		</g>
		<path class="st11" d="M245.54,142.4l0.88,11.39c0,0,2.88,2.02,10.3-1.31c0,0-2.09-8.91,2.05-14.28c0,0-1.13,0.07-1.32-1.23
			C257.46,136.98,254.33,144.33,245.54,142.4z"/>
		<path class="st15" d="M274.52,162.24c0,0-6.98,11.41-7.56,19.7c-0.57,8.29,6.53,18.2,8.11,24.63c0,0-5.24,14.93-11.09,21.31
			c0,0,2.49,6.61,3.7,8.14c0,0,15.34-13.79,18.48-25.06C289.31,199.69,274.52,162.24,274.52,162.24z"/>
		<path class="st12" d="M273.8,160.53c0,0-7.35-2.46-8.56,18.39c-0.35,6.07,3.99,14.51,3.99,14.51s5.89-6.06,14.29-4.13
			C283.52,189.3,279.86,164.95,273.8,160.53z"/>
		<path class="st10" d="M218.7,232.9c0,0-6.26,56.69,3.4,121.78c0,0,4.45,1.14,8.5,0.53c0,0,1.67-94,10.81-99.18
			c9.14-5.17-20.99-24.02-20.99-24.02"/>
	</g>
	<!-- person third -->
	<g id="person-third">
		<path class="st19" d="M329.36,365.74v-2.35c0-2.71-2.53-7.62-2.53-9.42s-6.98,1.47-6.98,1.47s-0.06,2.72-2.4,5.25
			c-1.79,1.93-1.79,4.4-1.69,5.06H329.36z"/>
		<path class="st19" d="M281.7,365.74l1.21-0.56l0.56,0.56h4.61c0.46-1.33,2.02-6.37,0.61-9.86c-1.63-4.05-6.69-2.97-6.69-2.97
			s-3.43,4.78-5.41,5.64c-1.98,0.86-9.56,3.92-10.46,5.91c-0.27,0.59,0.19,0.99,0.06,1.29H281.7z"/>
		<path class="st19" d="M297.18,214.65c-2.62,37.93-9.76,87.65-17.51,139.95c0,0,1.52,2.47,10.14,1.18l26.55-111.05
			c0.11-0.3,0.4-0.49,0.71-0.49c0.41,0,0.75,0.32,0.76,0.73c0.31,8.37,2.99,33.97,1.55,111.16c0,0,4.53,2.49,9.36,0
			c0,0,17.12-114.17,13.18-136.02L297.18,214.65z"/>
		<path class="st20" d="M309.36,145.9c-9.57,3.48-22.07,21.03-24.08,32.89c-2.01,11.85,7.51,9.33,13.01,1.73
			C303.79,172.91,309.36,145.9,309.36,145.9z"/>
		<path class="st21" d="M294.56,194.91c0,0,2.5-43.03,13.53-48.43c12.18-5.97,29.86-2.84,37.09,3.58c6.26,5.57-1.32,41.54-1.5,54.72
			c-0.19,13.18,0.75,16.83,0.75,16.83s-37.5,12.48-49.14-2.63L294.56,194.91z"/>
		<g>
			<path class="st11" d="M319.38,136.87c0,0,0.7,4.29-0.63,9.14c0,0,2.52,4.05,11.3-0.11c0,0-0.24-8.74,1.4-12.31l-0.53-0.99
				C326.19,138.42,319.38,136.87,319.38,136.87z"/>
			<path class="st15" d="M319.44,111.99c3.59-5.83,16.64,3.23,16.34,7.68c-0.31,4.45-3.85,18.03-13.99,17.69
				C311.17,137.01,316.17,117.29,319.44,111.99z"/>
			<path class="st14" d="M325.85,123.22c-0.2,0.72-0.7,1.22-1.12,1.11c-0.42-0.11-0.6-0.78-0.4-1.5c0.2-0.72,0.7-1.22,1.12-1.11
				C325.87,121.82,326.05,122.49,325.85,123.22z"/>
			<path class="st14" d="M318.75,121.99c-0.2,0.72-0.7,1.22-1.12,1.11c-0.42-0.11-0.6-0.78-0.4-1.5c0.2-0.72,0.7-1.22,1.12-1.11
				C318.77,120.6,318.95,121.27,318.75,121.99z"/>
			<path class="st17" d="M328.18,126.22c0.03,0.61-0.59,1.14-1.4,1.17c-0.81,0.03-1.48-0.44-1.52-1.05
				c-0.03-0.61,0.59-1.14,1.4-1.17C327.47,125.14,328.15,125.61,328.18,126.22z"/>
			<g>
				<path class="st22" d="M327.82,119.68c-0.09,0-0.18-0.04-0.24-0.12c-0.76-0.98-2.3-1.13-2.32-1.13
					c-0.17-0.02-0.29-0.17-0.28-0.34c0.02-0.17,0.18-0.29,0.34-0.28c0.07,0.01,1.83,0.18,2.75,1.37c0.1,0.13,0.08,0.33-0.05,0.43
					C327.95,119.66,327.89,119.68,327.82,119.68z"/>
			</g>
			<g>
				<path class="st22" d="M317.33,118.23c-0.03,0-0.07-0.01-0.1-0.02c-0.16-0.06-0.25-0.23-0.19-0.39c0.37-1.07,2.1-0.7,2.29-0.66
					c0.17,0.04,0.27,0.2,0.23,0.37c-0.04,0.17-0.2,0.27-0.37,0.23c-0.45-0.1-1.42-0.18-1.57,0.26
					C317.57,118.15,317.46,118.23,317.33,118.23z"/>
			</g>
			<path class="st14" d="M316.34,128.5c0,0,1.2,2.26,7.15,1.33C323.48,129.83,317.48,132.23,316.34,128.5z"/>
			<path class="st16" d="M319.37,124.49c0,0-5.63-2.42-5.64-0.96c-0.01,1.45,4.93,2.71,4.93,2.71S319.46,125.71,319.37,124.49z"/>
			<path class="st22" d="M331.39,114.49c0,0-6.64,0.8-8.6-0.09c-1.96-0.89,1.82-0.96,1.82-0.96s-7.01,0.44-8.44-0.24
				c-1.42-0.68,2.58-2.42,2.58-2.42s-1.63-0.52-0.86-1.06c0.77-0.54,6.01-2.69,13.05-0.28c7.04,2.41,9.59,8.69,6.79,16.31
				c-2.09,5.68-6.27,7.84-6.27,7.84l-0.53-0.99c0,0,0.64-4.09,0.21-5.5C330.56,125.22,329.94,116.39,331.39,114.49z"/>
			<path class="st15" d="M331.26,127.72c0,0,3.19-4.09,4.63-0.8c1.44,3.28-3.78,6.18-4.97,5.69
				C329.74,132.1,331.26,127.72,331.26,127.72z"/>
		</g>
		<path class="st20" d="M346.19,151.43c-3.52-4.43-14.19,20.05-15.71,29.08c-1.53,9.04,6.61,11.49,6.61,11.49
			S356.67,164.61,346.19,151.43z"/>
		<path class="st15" d="M312.53,185.97c0,0-1.29,0.27-3.3,0.6c-7,1.16-22.78,3.13-23.94-2.46c-0.8-3.86,1.17-6.61,3.15-8.33
			c0.39-0.33,0.77-0.63,1.14-0.88c1.27-0.89,2.31-1.32,2.31-1.32C300.12,172.88,312.53,185.97,312.53,185.97z"/>
		<path class="st20" d="M330.13,141.34c0,0-3.33,3.93-7.02,4.04l-2.09,2.11l-1.11-2.37c0,0-0.67-1.78-0.43-3.33
			c0,0-5.09,1.34-6.68,8.28c0,0,3.15-3.83,5.18-4.16l2.64,3.26l2.06-0.91l2.4,4.59c0,0,7.74-5.26,9.12-7.93
			C334.2,144.92,331.74,141.33,330.13,141.34z"/>
		<path class="st11" d="M288.98,174.89c0,0,0.02,0,0.04,0c-0.09,0.11-0.18,0.23-0.25,0.35L288.98,174.89z"/>
		<path class="st11" d="M312.53,185.97c0,0-1.29,0.27-3.3,0.6c-7.68-2.68-11.38-10.09-13.13-10.78c-1.7-0.68-5.14-0.85-6.52-0.89
			c1.27-0.89,2.31-1.32,2.31-1.32C300.12,172.88,312.53,185.97,312.53,185.97z"/>
		<path class="st15" d="M330.66,179.53c0,0,10.56,3.91,6.42,12.47c-4.13,8.56-39.42-14.21-41.8-18.15l-3.4-0.26
			c0,0-0.48-0.69,0.65-2.31c1.13-1.62,3.96-2.69,4.65-2.41c0.68,0.28,2.49,2.41,2.49,2.41S320.36,178.52,330.66,179.53z"/>
		<path class="st11" d="M323.98,178.4c0,0,1.71-0.95,2.71-0.9c1,0.05,2.17-0.89,2.67-0.96c0.5-0.07,2.75-0.05,3.5,0.44
			c0.75,0.49,1.84,1.07,1.08,1.82c-0.75,0.75-1.42-0.83-3.09-0.67c0,0,1.35,1.11,1.8,2.39c0.45,1.28-0.23,1.7-1.21,0.85
			c-0.98-0.85-2.36-2.02-2.36-2.02s-0.02,0.54,0,1.37C329.11,181.54,325.86,178.42,323.98,178.4z"/>
	</g>
	<!-- person first -->
	<g id="person-first">
		<g>
			<path class="st11" d="M192.03,247.29c0,0-1.42,2.17-1.77,3.21c-0.41,1.25-0.17,4.32-0.17,4.32s0.12,0.29,0.55,0.01
				c0.67-0.43,0.07-2.08,1.1-2.58C192.77,251.75,192.03,247.29,192.03,247.29z"/>
			<path class="st15" d="M199.4,243.64c0,0-5.53-0.67-6.76,0.87c0,0-0.94,4.53-1.45,5.98c-0.55,1.6-0.25,7.16,0.6,8.13
				c2.25,2.57,2.37,2.42,2.92,1.83c0.54-0.58-1.36-1.99-1.5-2.8c-0.07-0.4,0.48-2.28,0.48-2.28c-0.02,0.82,0.38,2.13,1.25,2.65
				c1.08,0.64,1.99,1.32,2.54,0.97c1.01-0.62-1.54-2.08-1.35-2.78c0.07-0.25,0.29-1.88,0.29-1.88c0.27,0.47,0.29,1.3,0.63,1.68
				c0.43,0.49,2.42,1.86,2.78,1.38c0.57-0.76-1.27-1.93-1.29-2.67c0-0.29,0.26-1.57,0.26-1.57s0.5,1.03,0.83,1.31
				c0.39,0.32,2.17,1.17,2.28,0.76c0.29-1.06-1.48-1.5-1.66-3.02c-0.15-1.26,0.44-4.19-0.32-5.45S199.4,243.64,199.4,243.64z"/>
		</g>
		<path class="st19" d="M172.99,385.02v-2.72c0-3.13-2.92-8.81-2.92-10.9c0-2.09-8.08,1.7-8.08,1.7s-0.06,3.15-2.78,6.07
			c-2.07,2.23-2.07,5.09-1.96,5.85H172.99z"/>
		<path class="st19" d="M117.87,385.02l1.4-0.65l0.65,0.65h5.33c0.53-1.53,2.33-7.36,0.71-11.41c-1.89-4.69-7.73-3.44-7.73-3.44
			s-3.97,5.53-6.26,6.52c-2.3,0.99-11.06,4.54-12.11,6.83c-0.31,0.69,0.22,1.15,0.07,1.49H117.87z"/>
		<path class="st19" d="M135.77,210.26c-3.03,43.88-11.29,101.39-20.26,161.88c0,0,1.76,2.86,11.73,1.36l30.71-128.45
			c0.13-0.34,0.46-0.57,0.83-0.57c0.48,0,0.87,0.37,0.88,0.85c0.35,9.68,3.46,39.3,1.79,128.58c0,0,5.24,2.88,10.83,0
			c0,0,19.8-132.06,15.24-157.34L135.77,210.26z"/>
		<path class="st23" d="M141.1,134.31c0,0-7.19,2.4-18.66,14.32c-9.44,9.81-11.85,6.42-11.85,6.42s-2.4-14.27,1.52-32.96
			c0,0-4.88,0.32-6.14-2.77c0,0-11.6,38.18-5.97,47.65c5.63,9.48,35.7-6.42,35.7-6.42L141.1,134.31z"/>
		<path class="st1" d="M188.21,225.28c0,0-8.39,8.82-32.97,4.93c-13.96-2.21-20.3-9.03-20.3-9.03s-4.49-76.14,0.45-82.56
			c3.59-4.66,10.65-6.66,19.85-7.15c3.47-0.18,7.24-0.15,11.26,0.04c2.97,0.14,5.79,0.62,8.41,1.35
			c10.3,2.87,17.52,9.63,18.61,14.93C194.89,154.44,188.21,225.28,188.21,225.28z"/>
		<path class="st14" d="M167.75,131.59c0,0,4.41,2.57,4.34,6.64c0,0,1.49-9.07-2.04-10.45C166.53,126.4,167.75,131.59,167.75,131.59
			z"/>
		<g>
			<path class="st15" d="M177.54,114.79c-5.77,14.11-21.55,9.62-22.87,2.96c-0.42-2.13-0.19-5.6,0.57-9.18
				c0.17-0.81,0.37-1.62,0.59-2.43c1.53-5.45,4.24-10.49,7.72-10.66C175.66,94.89,183.31,100.69,177.54,114.79z"/>
			<path class="st24" d="M159.67,97.57c0,0,7.67-2.76,16.3,3.15c0,0-0.68,8.86-1.36,12.73c0,0,3.16,2.46-2.74,8.62
				c0,0,4.77,1.17,10.01-10.89c4.55-10.46-2.45-12.27-2.45-12.27s0.34-7.04-7.36-8.41c-7.7-1.36-11.79,0.19-12.02-3.64
				C159.84,83.03,150.98,93.12,159.67,97.57z"/>
			<path class="st14" d="M167.3,107.51c-0.25,0.81-0.82,1.35-1.27,1.21c-0.45-0.14-0.61-0.91-0.35-1.72
				c0.25-0.81,0.82-1.35,1.27-1.21C167.4,105.93,167.56,106.7,167.3,107.51z"/>
			<path class="st14" d="M159.72,105.79c-0.25,0.81-0.82,1.35-1.27,1.21c-0.45-0.14-0.61-0.91-0.35-1.72
				c0.25-0.81,0.82-1.35,1.27-1.21C159.81,104.21,159.97,104.98,159.72,105.79z"/>
			<path class="st16" d="M160.67,107.48c0,0-2.67,2.56-3.96,1.63c-1.29-0.93-1.29,2.83,3.07,2.93
				C159.78,112.04,161.41,110.47,160.67,107.48z"/>
			<path class="st14" d="M157.03,113.05c0,0-0.17,1.53,2.47,2.05c2.64,0.51,4.77-0.6,4.77-0.6s-2.04,4.98-5.86,3.75
				C155.24,117.22,157.03,113.05,157.03,113.05z"/>
			<ellipse class="st17" cx="168.07" cy="111.02" rx="1.58" ry="1.26"/>
			<path class="st17" d="M157.18,108.34c-0.36,0.57-1.21,0.66-1.93,0.23c0.17-0.81,0.37-1.62,0.59-2.43
				c0.25,0.04,0.48,0.14,0.71,0.28C157.28,106.9,157.56,107.76,157.18,108.34z"/>
			<path class="st25" d="M166.98,101.71c0,0,1.8,0.26,2.66,1.53"/>
			<path class="st25" d="M160.52,100.69c0,0-1.75-0.51-2.11,0.43"/>
			<path class="st15" d="M174.61,113.44c0,0,3.24-2.02,4.88,0.37c1.65,2.39-3.63,6.31-5.94,5.37
				C171.26,118.24,174.61,113.44,174.61,113.44z"/>
		</g>
		<path class="st11" d="M158.22,122.22l-0.65,13.27c0,0,3.03,2.75,12.07,0c0,0-1.11-10.59,4.45-16.17c0,0-0.91-0.22-2.37-0.48
			C171.73,118.84,168.07,125.73,158.22,122.22z"/>
		<path class="st15" d="M116.02,111.02c0,0-0.8,3.88-0.8,5.83s-1.15,6.99-5.62,6.3c-4.47-0.69-7.68-10.1-7.68-10.1
			c-0.57-3.69,1.95-5.57,1.95-5.57c-0.34-1.68,1.95-3.43,1.95-3.43l0.46-2.93c3.25,0.59,1.18,2.93,2.23,7.17
			c0.25,1.02,1.76,2.76,2.37,3.75h0c0.83,1.34,1.69,2.38,1.69,2.38s0,0,0-0.01c0.1-0.17,1.41-2.41,2.29-3.38
			C115.79,110.01,116.02,111.02,116.02,111.02z"/>
		<path class="st11" d="M102.8,111.34c0,0,1.15-1.94,1.76-1.58c0,0,0.53,0.82,0.31,1.58c-0.23,0.76-1.15,1.6-0.53,3.59
			c0.61,1.99,4.6-4.89,4.6-4.89c-1.62,0.98-2.77-2.14-2.23-3.44c0.53-1.3,0.38-2.05,0.08-2.56c-0.31-0.5-0.96,0-0.96,0
			s0.42,0.21,0.57,0.66c0.15,0.45,0.31,2.51-0.08,3.12c-0.38,0.61,0.24-0.69-0.45-0.84c-0.7-0.15-1.23,0.26-1.23,0.26
			s0.84-0.04,0.84,0.65c0,0.69-0.53,1.66-0.53,1.66S103.57,108.06,102.8,111.34z"/>
		<path class="st11" d="M112.58,114.41c0,0-2.29-0.09-2.37,2.13c-0.07,2.22-1.68,2.3-1.68,2.3s-0.41-5.12,2.35-6.8h0
			C111.72,113.38,112.58,114.41,112.58,114.41z"/>
		<path class="st26" d="M190.01,234.1c0,0-13.73,0.46-21.7-8.82c-7.69-8.96-6.4-69.21-5.21-76.99c0,0,4.15-4.62,7.68-7.26
			c3.09-2.31,3.95-7.02,4.12-8.17c10.3,2.87,17.52,9.63,18.61,14.93C194.89,154.44,190.01,234.1,190.01,234.1z"/>
		<path class="st26" d="M155.23,131.48c-1.4,2.23-4.03,7.24-4.8,14.41c-0.52,4.89-2.66,66.17-6.55,74.47
			c-1.67,3.56-11.4,10.85-11.4,10.85s-2.05-86.16,2.89-92.58C138.97,133.96,146.03,131.96,155.23,131.48z"/>
		<path class="st23" d="M170.05,127.78c0,0,7.3,0.13,9.11,7.59c1.81,7.46-7.73,13.31-7.73,13.31s-1.56-4.03-3.66-4.02
			c-2.09,0-4.68,3.63-4.68,3.63s1.99-4.55,4.96-6.84C171.04,139.16,173.87,132.69,170.05,127.78z"/>
		<path class="st23" d="M157.97,127.31c0,0-10.75,1.95-14.97,12.71c0,0,2.59-1.13,4.31,0c1.72,1.13,3.13,5.87,3.13,5.87
			s1.7-11.58,7.33-14.5L157.97,127.31z"/>
		<path class="st23" d="M190.65,142.4c0,0-6.94,12.26-6.26,20.3c0.32,3.79,7.38,34.49,7.38,34.49s-1.72,38.97,0.93,47.83
			c0,0,5.67-0.18,6.97-1.39c0,0,6.43-24.41,5.11-48.29C203.48,171.97,196.14,147.56,190.65,142.4z"/>
	</g>
	<g id="person-fourth">
		<path class="st11" d="M342.22,364.88c0.47-0.46,1.07-1.18,1.77-2.3c1.43-2.29,4.19-1.78,4.19-1.78c0.85,0.74,0.99,4.14,1.01,4.94
			h1.07c0.37-0.96,1.67-5.34,1.28-6.98c-0.33-1.32-1.31-4.37-1.74-5.83c-0.12-0.41-0.22-0.76-0.24-1.18
			c1.19-4.99,5.28-22.01,12.4-35.74c5.65-10.9,7.47-15.23,8.59-25c1.12-9.77,10.03-34.2,10.03-34.2s-12.51-33.97-17.66-12.85
			c-5.15,21.13-5.84,47.04-6.7,52.22c-0.86,5.17-8.61,41.42-13.22,56.61c-0.88,2.9-5.15,8.66-6.82,10.01
			c-0.01,0.01-0.02,0.01-0.04,0.02c-0.21,0.05-1.27,0.37-2.22,1.17c-0.29,0.24-0.55,0.54-0.79,0.88H342.22z"/>
		<path class="st10" d="M342.22,365.74c0.92,0,2.69-1.91,3.93-2.87c1.16-0.9,1.83-0.86,1.83-0.86c0.85,0.74,1.19,2.94,1.21,3.74
			h1.07c0.37-0.96,1.67-5.34,1.28-6.98c-0.33-1.32-1.09-3.14-1.32-5.64c-3.35-1.91-6.22,4.54-10.53,8.17
			c-2.17,1.82-3.51,1.51-3.51,1.51s-0.02,0.01-0.04,0.02c-0.18,0.1-1.48,0.2-2.67,0.83c-1.8,1.08-1.82,1.75-2.07,2.08H342.22z"/>
		<path class="st15" d="M402.16,250.78c1.38,21.54-2.7,26.88-4.29,35.74c-1.2,6.7,2.21,16.41-1.23,27.2
			c-2.29,7.18-7.38,37.65-7.38,37.65v12.64h-8.51c0,0,3.35-13.99,3.35-19.25c0-22.7,3.13-49.77,2.67-60.06
			c-0.45-10.06-3.83-29.89-3.83-29.89L402.16,250.78z"/>
		<path class="st10" d="M391.57,217.61c0,0,13.18,11.62,11.95,43.52c0,0-11.71,2.7-27.77,2.01c-13.51-0.57-17.62-3.06-17.62-3.06
			c0.75-19.51,8.79-43.62,8.79-43.62S379.06,211.89,391.57,217.61z"/>
		<path class="st12" d="M381.79,135.77c0,0-4.83,0.34-4.75,5.87c0.08,5.53,0.6,13.61-1.53,17.36c-2.12,3.75-0.27,12.02,10.79,11.78
			c11.06-0.24,16.51,2.11,16.4-1.27C402.61,166.12,381.79,135.77,381.79,135.77z"/>
		<path class="st27" d="M379.19,164.06c-3.34-3.4-9.43-1.61-18.81,16.56c-7.4,14.32-1.84,19.83,1.82,18.03
			c3.66-1.8,13.21-12.92,13.21-12.92L379.19,164.06z"/>
		<path class="st22" d="M379.19,164.06c0,0,5.34,4.78,12.96,6.55c7.63,1.77,10.81-2.88,14.71,2.04c5.86,7.38-3.67,20.99-8.68,28.05
			c-1.87,2.63-5.81,9.92-6.61,16.92c0,0-13.24,3.85-24.65-1.15l-0.85-16.24C366.07,200.22,358.87,178.34,379.19,164.06z"/>
		<path class="st15" d="M358.64,190.35c1.68-4.27,30.33-13.26,30.33-13.26l1.96,3.12c0,0-23.81,18.93-28.73,18.44
			C357.28,198.15,357.06,194.37,358.64,190.35z"/>
		<path class="st27" d="M404.85,170.85c0,0-4.77,2.24-5.36,13.61c-0.4,7.76-4.2,21.36-4.2,21.36c3.41,10.27,7.56,4.5,8.63,2.52
			C410.51,196.1,415.86,174.74,404.85,170.85z"/>
		<g>
			<path class="st15" d="M398.69,137.75c0,0-14.61-4.89-17.55,5.39c-2.94,10.29,0.03,21.03,7.89,20.77
				C398.74,163.59,410.04,143.54,398.69,137.75z"/>
			<path class="st14" d="M388.99,149.5c-0.04,0.66-0.42,1.17-0.83,1.15c-0.42-0.03-0.72-0.58-0.68-1.24
				c0.04-0.66,0.42-1.17,0.83-1.15C388.73,148.29,389.03,148.84,388.99,149.5z"/>
			<path class="st17" d="M391.34,152.2c0.06,0.62-0.51,1.18-1.28,1.26c-0.77,0.08-1.45-0.35-1.51-0.97
				c-0.06-0.62,0.51-1.18,1.28-1.26C390.59,151.15,391.27,151.58,391.34,152.2z"/>
			<path class="st14" d="M389.39,149.33c0,0-0.35-1.52-0.89-1.55c-0.54-0.04-1.44,0.98-1.44,0.98l-0.99-0.72l0.95,0.37
				c0,0,0.82-1.16,1.57-0.92C389.34,147.72,389.39,149.33,389.39,149.33z"/>
			<path class="st14" d="M382.88,148.56c-0.04,0.66-0.42,1.17-0.83,1.15c-0.42-0.03-0.72-0.58-0.68-1.24
				c0.04-0.66,0.42-1.17,0.83-1.15C382.62,147.34,382.93,147.9,382.88,148.56z"/>
			<path class="st14" d="M383.28,148.39c0,0-0.35-1.52-0.89-1.55c-0.54-0.04-1.44,0.98-1.44,0.98l-0.99-0.72l0.95,0.37
				c0,0,0.82-1.16,1.57-0.92C383.24,146.78,383.28,148.39,383.28,148.39z"/>
			<g>
				<path class="st12" d="M390.2,145.89c-0.09-0.01-0.18-0.05-0.24-0.14c-0.61-0.95-1.79-0.84-1.8-0.84
					c-0.17,0.02-0.32-0.1-0.33-0.27c-0.02-0.17,0.1-0.32,0.27-0.33c0.06-0.01,1.56-0.15,2.37,1.11c0.09,0.14,0.05,0.33-0.09,0.42
					C390.33,145.88,390.26,145.89,390.2,145.89z"/>
			</g>
			<g>
				<path class="st12" d="M383.47,144.33c-0.06,0-0.12-0.03-0.18-0.07c-0.86-0.72-1.92-0.27-1.97-0.25c-0.15,0.07-0.33,0-0.4-0.16
					c-0.07-0.15,0-0.33,0.16-0.4c0.06-0.03,1.44-0.62,2.6,0.34c0.13,0.11,0.15,0.3,0.04,0.43
					C383.66,144.3,383.56,144.33,383.47,144.33z"/>
			</g>
			<path class="st16" d="M383.25,150.44c0,0-2.61,0.02-2.35,0.94s1.76,2.11,1.76,2.11S383.83,151.59,383.25,150.44z"/>
			<path class="st14" d="M381.99,155.11c0,0,2.21,1.42,6.06,0.18c0,0-1.16,4.57-3.61,3.99
				C381.99,158.69,381.99,155.11,381.99,155.11z"/>
			<path class="st12" d="M392.88,143.04c0,0,3.34,4.26,3.17,9.79c0,0,2.45-3,3.73-0.39c1.28,2.61-3.85,6.42-3.85,6.42
				s0.07,6.63,2.34,6.72c2.28,0.09,8.23-12.62,6.9-16.95C403.83,144.31,399.73,140.01,392.88,143.04z"/>
			<path class="st11" d="M395.75,156.55c-1.12,3.02-5.42,8.25-9.97,6.75c0,0,0.63,2.99-1.27,4.63c0,0-1.28,1.28,0.66,2.6
				c6.08,4.14,10.3,1.21,10.91,0.15l1.28-13.58C396.14,157.92,395.75,156.55,395.75,156.55z"/>
			<path class="st13" d="M379.91,137c0,0,0.41,3.91,6.18,6.07c5.76,2.16,10.6,2.82,11.15,7.94c0.55,5.12-4.76,11.46-2.37,18.46
				c1.55,4.54,7.76,2.06,10.04,1.89c1.04-0.08,2.36,0.88,2.36,0.88s2.33-3.47-1.06-7.72c-2.07-2.6,1.45-12.24,0.42-17.37
				c-1.03-5.13-1.88-6.02-4.66-10.9c-2.78-4.88-13.4-5.38-16.08-2.15C385.89,134.1,379.84,131.55,379.91,137z"/>
		</g>
		<path class="st15" d="M404.15,206.67c1.67-7.51-2.28-6.27-4.39-29.56l-3.48,0.79l-0.35,4.87c0,0-2.62,19.38,0.01,25.2
			C398.56,213.77,403.14,211.22,404.15,206.67z"/>
		<g>
			<path class="st15" d="M388.01,177.3c0,0,0.99-6.81,2.1-8.51c1.11-1.7,2.94-4.48,2.94-4.48s1.15-0.67,0.12,2.81l1.24-0.6
				c0,0,0.58,0.88-0.13,2.49c0,0,0.16,0.47-0.09,1.02c0,0,0.46,0.74-0.3,1.8c-1.03,1.44,0.12,5.72-2.96,8.37
				C387.85,182.86,388.01,177.3,388.01,177.3z"/>
			<path class="st11" d="M393.17,167.13l-1.71,1.85l-1.26,2.1c0,0,0.31-1.53,1.03-2.49c0.72-0.96,2.27-2.73,2.27-2.73L393.17,167.13
				z"/>
			<path class="st11" d="M394.28,169.01c0,0,0.27-0.86-0.21-0.95c-0.48-0.1-2.94,1.7-3.2,4.18c0,0,0.46-1.16,1.15-2.11
				C392.7,169.17,394.18,167.52,394.28,169.01z"/>
			<path class="st11" d="M394.33,170.69c-0.43-1-1.35,0.85-1.67,1.58c-0.33,0.73-0.95,1.3-0.95,1.3s1.04-2.8,1.85-3.47
				C394.37,169.44,394.33,170.69,394.33,170.69z"/>
		</g>
		<g>
			<path class="st15" d="M397.86,180.99c0,0-1.75-0.85-2.02-3.11c-0.15-1.25,0.99-4.68,2.58-6.69c0,0,0.53-0.16,0.57,0.64
				c0,0,1.94-2.64,2.53-4.17c0.59-1.53,1.05-0.76,1.05-0.76l-0.05,0.81c0,0,0.61-0.49,0.92,0.05c0.3,0.54-0.18,3.2-0.18,3.2
				s0.58-0.59,0.04,1.9C402.75,175.35,400.37,181.29,397.86,180.99z"/>
			<path class="st11" d="M398.98,171.83c0,0-0.15,1.54-0.63,2.31s-0.13,1.26-0.16,2.87c0,0,0.6-1.67,0.63-2.23
				C398.85,174.22,400.36,172.46,398.98,171.83z"/>
			<path class="st11" d="M402.51,167.71c0,0-0.67,2.35-2.38,4.76C400.14,172.47,401.58,168.15,402.51,167.71z"/>
			<path class="st11" d="M403.25,170.97c-0.66,0.33-1.1,2.52-1.71,3.35c-0.61,0.83-0.63-0.09,0.05-0.82
				c0.36-0.39,0.74-1.52,1.08-2.09C402.96,170.92,403.25,170.97,403.25,170.97z"/>
			<path class="st11" d="M403.52,168.7c0,0,0.03-0.17-0.21-0.23c-0.25-0.06-0.52,0.11-0.69,0.76c-0.16,0.65-1.53,4.13-1.92,4.25
				c-0.38,0.12,0.49-0.87,0.71-1.51c0.22-0.64,0.87-2.33,1.16-3.08C402.87,168.13,403.47,168.02,403.52,168.7z"/>
		</g>
		<path class="st10" d="M390.66,365.74c0.21-1.81-0.25-4.95-0.25-6.47c0-1.87-1.15-6.65-1.15-6.65c-0.36,3.37-1.29,5.5-1.72,7.23
			s-3.74,1.29-4.4,0c-0.66-1.29,0-7.23,0-7.23c-1.52,2.4-1.06,5.79-2.39,6.96c-0.94,0.82-1.03,4.55-1.01,6.17H390.66z"/>
	</g>
</g>
</svg>
