<svg xmlns="http://www.w3.org/2000/svg" viewBox="0 0 607.64 625"><g id="Layer_2" data-name="Layer 2" ><g id="Layer_1-2" data-name="Layer 1"><path d="M574,545.53c-5.6-.56-11.18-1-15.06-6-1.56-2-3.06-3.93-3-6.61a8,8,0,0,1,0-6c1.7-7.71,6.68-11.21,17.1-12,2.16-2.38,4.92-1.75,7.59-1.5,1.72,0,3.44,0,5.15,0a16.52,16.52,0,0,1,6.57,0,18.06,18.06,0,0,1,6.74,2,11.83,11.83,0,0,1,3.65,2.62,26.53,26.53,0,0,1,3.4,4.75,11.54,11.54,0,0,1,1.21,3.56,13.48,13.48,0,0,1,.09,5.37,10.87,10.87,0,0,1-2,6.54,16.39,16.39,0,0,1-5.69,5.92,14.14,14.14,0,0,1-2.05,1.05,14.5,14.5,0,0,1-6.09,1.24,13.67,13.67,0,0,1-5.48.05,15.9,15.9,0,0,1-5.33,0c-1.92-.2-3.85.49-5.78,0A1.48,1.48,0,0,1,574,545.53Z" style="fill:#e5e467"/><path d="M284,88c-5.44-1.74-9.18-5-10-11a11.23,11.23,0,0,1,0-7c.59-4.59,4-7.2,7.06-10,1-2,2.85-2.38,4.83-2.54a18,18,0,0,1,6.46-.93H299c3.88.22,7.81-.49,11.64.57a26.9,26.9,0,0,1,5.21,1.62A18.37,18.37,0,0,1,320.64,62,15.15,15.15,0,0,1,324,67.11a4.86,4.86,0,0,1,0,2c.62,11.23-2.15,16-11,18.88A170.89,170.89,0,0,1,284,88Z" style="fill:#e6e467"/><path d="M232,451l4-.14c4.43-.86,8.89-.35,13.34-.37,14.89-.08,29.78,0,44.67,0,1.64,0,3.32-.34,4.9.39,9.62,1.08,16.44,7.47,18.07,16.88a13.62,13.62,0,0,0,.8,2.27c.75.23.78.54.1.93-1.55,6.52-3.56,12.64-9.88,16.42-4.49,2.7-9.37,3.42-14.31,3.47-17.81.16-35.61.22-53.41,0-8-.11-15.38-2-20-9.78-6.23-10.51-2.86-22.63,8.15-28.26C229.68,452.14,230.86,451.56,232,451Z" style="fill:#f4e600"/><path d="M359.1,350c-.15,14.76-4.59,21.4-16.11,24.1q-24.72-.06-49.44-.13c-8.81,0-18.19-7.2-19.46-14.82-1.79-10.75,3-19.72,12.48-23.46a17,17,0,0,1,6.39-.76c14.32,0,28.65.45,42.94-.17C347.74,334.23,355.34,338.86,359.1,350Z" style="fill:#f4e600"/><path d="M217.17,230c-4.76,5.76-10.81,8.34-18.33,8.06s-15.27-.2-22.9,0A24.4,24.4,0,0,1,163.06,235c-13-10-11.28-26.25.27-33.47a19.89,19.89,0,0,1,8.83-3.2c10.12-.62,20.31-1,30.4.09,13.92,1.5,23.5,15.71,15.45,30.56A2.82,2.82,0,0,1,217.17,230Z" style="fill:#f4e600"/><path d="M324.12,550.94c-.54,14.54-8.17,21.93-22.67,22-1.48,0-3,0-4.44.05-5.75.07-11.26-.75-15.92-4.51-6.85-5.54-8.65-13-6.6-21.06,1.89-7.39,7-12.39,14.83-13.74s15.57-1.86,23,1.07C319.52,537.55,322.45,543.89,324.12,550.94Z" style="fill:#f4e600"/><path d="M.1,173V109c1.95-2.09,4.55-1.72,7-1.73a23,23,0,0,0,10.18-1.91c6.35-3.09,10.17-8.22,10.6-15.16a17.29,17.29,0,0,0-8.09-16.13c-1.65-1.11-3.41-2.06-5-3.26-3-3.91-3.7-9.28-8.2-12.25C4.39,57.1,1.83,56.13.1,54V1C1.35,0,2.87,0,4.36,0c69.49,0,139-.14,208.44.08,3.26.88,3.52,3.71,3.86,6.3,1.65,12.7-7.3,23.26-20.65,24.31-6,.47-12,.15-17.95.18-9.64,0-16.58,4.12-20.25,13.22a10.42,10.42,0,0,0-.38,9.22c3.08,8.13,8.63,13.19,17.52,14.11,19.3.08,38.58.16,57.85-.07a21.29,21.29,0,0,1,21.41,15.75,21.82,21.82,0,0,1-10.86,25.33c-1.34.68-2.76,1.12-4.13,1.71a27.86,27.86,0,0,1-10.84.32H173.11c-13.29-.15-26.58.3-39.86-.24-2.63-.8-3.21-3.12-3.95-5.34-3.07-9.28-9.15-13.83-18.9-14.07-4.66-.11-9.33-.14-14,0-9.23.31-16.34,6-18.11,14.32s2.25,15.81,10.43,20c1.92,1,4.79,1.17,4.64,4.42-3,7.6,7.75,17.49,15.63,17.38,12-.17,24-.05,35.95,0,16.81,0,33.62,0,50.43,0a60.58,60.58,0,0,1,13.88,1.32c8.38,1.95,13.46,7.48,15.34,15.9a16.51,16.51,0,0,0,.73,7.08c2.12,8.85,7,14.93,16.47,16.5a26.69,26.69,0,0,0,5.41.74c16.89-.07,33.79.08,50.68-.1a20,20,0,0,1,19.27,15.13,21.8,21.8,0,0,1-10,24.49,22.52,22.52,0,0,1-5.5,2.35c-2.12.15-4.24.06-6.36.09q-34.49,0-69,0a33.08,33.08,0,0,1-7-.3c-2.82-1.2-2-3.48-1.52-5.54,3-14.74-4.33-24.22-19.49-24.72-7.79-.26-15.61-.35-23.39.06-11.63.61-19.68,9-18.92,19.42a19.7,19.7,0,0,0,4.33,10.41c1.07,1.46,2.6,2.6,3,4.49-2.43,3.68-6,6.68-6.94,11.25a9.32,9.32,0,0,0,0,8c2.33,7.74,7,13,15.36,14.19a26,26,0,0,0,5.41.73c16.22-.1,32.44.15,48.66-.15,12-.39,20.88,7.81,21.88,20.1a8.73,8.73,0,0,0,.63,5.19c3.22,9.27,9.29,14.86,19.5,15.14a33.69,33.69,0,0,0,8.44.71q80.29,0,160.61,0c3,0,6-.25,8.87.88,9.68,3.38,14.86,11.35,13.94,21.45a21.49,21.49,0,0,1-18.53,19.87,43.67,43.67,0,0,1-6.47.28H367c-2.65,0-5.34.21-7.84-1-2.18-1.19-3-3.43-4.23-5.4-3.48-5.64-8.36-8.71-15.2-8.67-15.46.08-30.92,0-46.37.05-10.22.06-16.7,7.17-17.49,17.16-.7,8.84,9.07,18.24,17.53,18,13.78-.44,27.59-.14,41.38-.09,2.64,0,5.35-.3,7.77,1.19,1.28,3.55-1.7,3.15-3.44,3.37-3.92.49-7.89.15-11.84.23-3.4.07-3.56,1.58-1.92,4,2.93,4.36,7.25,6.56,12.2,7.78a25.6,25.6,0,0,0,7.39.9c18.61,0,37.22,0,55.82,0,8.83.2,16.67,7.55,17.82,16.71-.2,2.77-.06,5.54-.09,8.3-.81,8.66-6.09,13.42-13.89,16a47.16,47.16,0,0,1-5.73,1.46,5,5,0,0,1-1.68-.1,88,88,0,0,0-23.15.55,12.45,12.45,0,0,1-2.72-.36c-4.12-1.41-8.25,0-12.37,0-15.79-.06-31.57,0-47.35,0-2.1-.29-4.19-.79-6.32-.18a35.37,35.37,0,0,1-6.26,0,16.14,16.14,0,0,0-7,0,38.11,38.11,0,0,1-6.32,0c-12-.45-24-1.11-36,.45-9,2.11-14.45,7.53-16,16.72a8.31,8.31,0,0,1-.93,2.81c-1.4,2-3.75,2.71-5.57,4.12-5.65,4.37-9,10-7.81,17.24a17.26,17.26,0,0,0,12.87,14.45,33.42,33.42,0,0,0,9.34,1.39q25.44,0,50.88,0a40.15,40.15,0,0,0,8.89-1.12c6.93-1.58,11.28-6.06,13.49-12.69.73-2.2,1-4.64,3.69-5.51,8.79-.6,17.59,0,26.37-.34,10.9-.19,18.82,5.78,21.64,16.28a16.81,16.81,0,0,0,.85,7.57c2.33,8.46,7.34,14.08,16.35,15.53a28.7,28.7,0,0,0,6.41.72c16.57-.05,33.14,0,49.7-.05,8.57-.62,17.64,7.38,19.55,17.3a21.48,21.48,0,0,1-12.58,23.94c-1.55.64-3.18.91-4.75,1.44a13.88,13.88,0,0,1-5.87.49c-1.48.18-2.93.68-4.45.31-3.31-1.11-6.59.13-9.89.12-30.06-.07-60.12,0-90.18,0-2.14,0-4.32.17-6.39-.6-2.64-1-3.51-3.37-4.41-5.69-3.07-7.89-9-11.56-17.27-11.88a76.82,76.82,0,0,0-10.94.13c-9.65,1-16.38,7.7-16.78,16.6-.46,10.19,4.92,17.06,14.95,19.17,2.09.44,4.33.33,6.21,1.6,2.34,2.48,2.15,6.18,4.35,8.79,3.27,3.88,6.79,7.24,12.23,7.6a28.3,28.3,0,0,0,5.43.76c16.3-.12,32.59.17,48.88-.19S395,606.49,387.3,620.94a9.85,9.85,0,0,1-4.32,3.95H159.05c-.86-2.16.43-3.83,1.24-5.63,5.86-13-2.32-26.14-16.62-26.32-16.65-.2-33.31.11-50-.11-12.78-.17-21.94-8.79-22.53-20.77a21.66,21.66,0,0,1,19.21-22.92,58.37,58.37,0,0,1,7.48-.23q56.2,0,112.42,0c5.39,0,10.69-.54,15.15-4A17.79,17.79,0,0,0,214.9,513c-14.48-.15-29,0-43.46-.05-2.5,0-5,.05-7.5,0-13.3-.53-21.76-8.09-23.74-21.19-2.06-13.72-7.84-18.75-21.63-18.76q-43.21,0-86.44,0c-6.86,0-13.4-1.28-18.4-6.32-6-6.09-8.57-13.49-6.12-22s7.94-14.08,16.79-16a39.91,39.91,0,0,1,8.45-.69c13.15,0,26.31-.05,39.47,0a35.32,35.32,0,0,0,11.3-1.35c2.18,1,2,3.19,2.51,5.09,2,8.43,7.7,13.13,16.32,13.28,9,.16,18,.1,26.93,0,7.23-.06,12.24-3.59,15.25-10.07,1-2.1,1.44-4.47,3.54-5.88,2.64-1.4,5.52-1.09,8.33-1.11,5.83-.05,11.66.09,17.49-.05,10.47-.24,18.15-8,18-18.1-.14-9.41-8-16.76-18.12-16.82-17-.1-34,0-51,0a44.94,44.94,0,0,1-11.39-1.28c-10.82-2.79-18-12.31-17.13-22.8a22.78,22.78,0,0,1,21.3-20.8c7.15-.4,14.33-.11,21.49-.12,24.48,0,49,0,73.45,0,4.7,0,9.29-.53,13.41-3.16,6.38-4.07,9.2-10.35,8-17.95a17,17,0,0,0-13.52-13.74,59.77,59.77,0,0,0-12.4-1.16q-79.2.07-158.4,0a47.94,47.94,0,0,1-8.47-.39c-9.47-1.69-16.7-8.69-17.72-18.51-1.22-11.67-6.15-19.49-18.41-21.33A5.74,5.74,0,0,1,.1,270V229c2.25-2.29,5.17-2,8-2,21.45,0,42.89.11,64.33-.06,14.19-.12,22.27-14,15.56-26.49-3.29-6.1-8.78-8.37-15.32-8.43-15-.13-29.92,0-44.88,0a54.29,54.29,0,0,1-8-.4C7.36,189.72,2.33,185,.1,173Z" style="fill:#e5e467"/><path d="M.1,270c13.61-1.2,22.82,9.33,23.08,21.8.21,10.28,9.06,18.18,20,18.21,31,.08,62,0,92.94,0q36.74,0,73.46,0a38.19,38.19,0,0,1,11.31,1.54c8.63,2.66,14.31,11,13.61,19.3-.84,10.07-6.38,16.24-16.05,18.3a39.74,39.74,0,0,1-8.4.82q-46.47,0-93,0C107,350,99.35,356,96.9,365.85a19.8,19.8,0,0,0,14.8,24A46.71,46.71,0,0,0,122.08,391c17.49-.11,35-.08,52.47,0A19.18,19.18,0,0,1,194,410c0,11.14-8.41,19.8-19.37,19.88-8.83.07-17.66,0-26.48,0-2-1.16-2.05-3.32-2.7-5.16-3.07-8.65-8.8-12.84-18-12.93-7.49-.08-15,.07-22.46,0-8.76-.13-15,3.49-18.52,11.64-.59,1.36-1.08,2.83-2.62,3.49-1,3-3.31,3.07-6,3.06-16.15-.08-32.3-.12-48.46,0-10.29.08-18.35,6.51-20.33,15.85-2.87,13.52,6.69,25.07,21,25.09q44.7.09,89.41,0c14.19,0,21.1,6.22,22.56,20.31,1.25,12,9.58,19.59,21.75,19.64,16.82.08,33.64,0,50.46,0,10.63,0,18.89,7.21,19.82,17.09,1.11,11.92-4.58,19.73-15.88,22.14a37.65,37.65,0,0,1-7.9.77H93.92c-12.31,0-20.87,8.18-20.89,19.9s8.5,20.05,20.75,20.08c15.82,0,31.64.18,47.46-.06,9.26-.15,17,2.49,21.06,11.2,3.76,8.05,2.41,15.89-3.25,22.86-51.52,0-103-.06-154.56.11C.54,625-.08,623.88,0,620.3c.25-10.79.09-21.6.09-32.4,1.8-1.9,4.17-1.84,6.5-1.88,4.49-.07,9,.08,13.48-.08,9.31-.32,16.59-7.63,16.51-16.52a16.75,16.75,0,0,0-16.51-16.56c-4.49-.16-9,0-13.48-.08-2.33,0-4.7,0-6.5-1.88Z" style="fill:#f4e600"/><path d="M383,624.89c7.18-10.76,6.72-21.32-1.43-28.88-3.49-3.23-7.56-5.41-12.56-5.15-2.91-1-5.91-.43-8.86-.44-14.42-.06-28.85,0-43.27,0-1.63,0-3.32.42-4.88-.46-7.93-.67-14.75-8.38-15-16.94,1.49-2.07,3.77-1.74,5.86-1.89,11.34-.83,16.58-5.24,19.28-16.33.35-1.43.48-3,2-3.81l104.07,0c1.63,0,3.34-.3,4.82.75-.24,1.29-1.23,1.9-2.24,2.51-1.82.86-3.63,1.75-4.71,3.59a35.17,35.17,0,0,0-3.9,6,15.38,15.38,0,0,0-1.65,5.58c.41,2-.05,4,.58,6,.8,2,1,4.29,2.81,5.82a14,14,0,0,0,6.17,5.57c.62.27,1.17.65,1.79.93A22.76,22.76,0,0,0,435,589c3.93.3,5.48,2.91,6.17,6.35,1.62,6,5.74,9.25,11.71,10.39,3.28,1,6.62.68,9.95.68,13.66,0,27.31,0,41,0,6.89,0,7.3.45,7.62,7.33a8.17,8.17,0,0,1-.11,3.48c-1.19,3-2.54,5.86-5.41,7.67Z" style="fill:#c9c964"/><path d="M.1,173C4.89,187.49,14.29,190,26,190q23.21,0,46.41,0c8.63,0,15.23,3.35,18.5,11.66,3,7.75,2,15.23-3.65,21.32A19,19,0,0,1,73,229c-24.29-.07-48.58,0-72.86,0Z" style="fill:#f4e600"/><path d="M.1,550.9c7,0,14-.3,20.94,0a18.5,18.5,0,0,1-1,37c-6.66.06-13.32,0-20,0Z" style="fill:#fffdfe"/><path d="M15.24,70A19.44,19.44,0,0,1,29.72,91.12c-1.4,10.82-9.85,17.75-20.64,17.87-3,0-6,0-9,0V90a16.89,16.89,0,0,1,3.91-3,18.49,18.49,0,0,0,9.25-12.74C13.59,72.75,13.54,71,15.24,70Z" style="fill:#f4e600"/><path d="M15.24,70C14.67,81.61,9.4,88.56.1,90V54C9.39,55.34,13.29,61.76,15.24,70Z" style="fill:#fffdfe"/><path d="M417,405.94a19,19,0,0,0-15-15c-1.71-.94-3.57-.47-5.36-.47-18.39,0-36.77,0-55.16,0-1.79,0-3.65.43-5.38-.44A19.69,19.69,0,0,1,322,378.89c-1.35-2.74-.7-4,2.44-3.95,4.45.06,8.9,0,13.35,0,1.77,0,3.65.42,5.24-.85.78-1.89,2.64-2.43,4.21-3.26,6.25-3.3,9.62-8.38,10-15.47.11-1.93-.11-4.06,1.88-5.37,26.47,0,52.94,0,79.41-.05,9.9,0,17.2-6.52,19.19-16.77,1.75-9-2.91-17.44-11.74-21.21,1-3.44,3.9-2.42,6.12-2.43,22.9-.1,45.8-.06,68.7,0a41.73,41.73,0,0,0,9.4-.68,22.6,22.6,0,0,1,5.51-.33h25.06a12.19,12.19,0,0,1,6.08,1,17,17,0,0,1,6.5,3.42,37.5,37.5,0,0,1,5.42,5.56c.59,1,1.15,2.08,1.65,3.16a22.31,22.31,0,0,1,1.83,4.8,13,13,0,0,1,.16,5.31c-.34,4.8-3,8.59-5.39,12.51a10.24,10.24,0,0,1-2.74,2.75c-2.44,1.53-4.75,3.37-7.8,3.6a28.63,28.63,0,0,1-11.57.9c-2-.08-4-.08-6,0a15.66,15.66,0,0,1-6.88,0c-2-.12-4-.09-6,0a13.59,13.59,0,0,1-6,0c-2-.1-4-.08-6,0a15.9,15.9,0,0,1-6.9,0c-2-.11-4-.09-6,0a13.64,13.64,0,0,1-6,0c-2-.1-4-.08-6,0a15.9,15.9,0,0,1-6.9,0c-2-.11-4-.09-6,0a13.55,13.55,0,0,1-6,0c-2-.1-4-.08-6,0a15.58,15.58,0,0,1-6.66,0c-1.56-.14-3.13-.09-4.69-.09-2.44-.06-4.59,1.14-6.9,1.66a12.61,12.61,0,0,0-5.75,3.45c-.45.5-.91,1-1.38,1.49a11.89,11.89,0,0,0-3.33,5.78,34.94,34.94,0,0,0-.81,5.38c.61,2.26-.34,4.64.52,6.87a19.06,19.06,0,0,0,3,5.19,15.68,15.68,0,0,0,8.53,6.38c1.3.63,2.77.87,4,1.74a6.29,6.29,0,0,1,2,3.89c1.29,7.05,5.5,11.12,12.52,12.37a67.05,67.05,0,0,0,22.83,0c6.77-1.38,11.08-5.25,12.43-12.19a4.88,4.88,0,0,1,1.9-3.33c3.17-1.3,6.5-.35,9.74-.64h1.6a11.27,11.27,0,0,1,6.66,1.92,13,13,0,0,1,3.36,1.77,22.24,22.24,0,0,1,6,7.76c1.91,3.69,2,7.66,1.82,11.66.23,2.15-.79,4.05-1.21,6.08a19.23,19.23,0,0,1-3.11,5.1,18.24,18.24,0,0,1-6.8,5.64,19.2,19.2,0,0,1-6.84,2l-1.72,0c-11.69,0-23.38,0-35,.86-4.19-2.07-8.4,1.37-12.59,0a9.69,9.69,0,0,0-7.2-.15,9.6,9.6,0,0,1-5.81.08c-4-2-8.07,1.61-12.1,0a9.78,9.78,0,0,0-7.14-.07,9.55,9.55,0,0,1-5.77.05c-4-2-8,1.6-12.06,0a10.18,10.18,0,0,0-7.52,0,9.08,9.08,0,0,1-5.24,0,8.7,8.7,0,0,0-6.33-.16,6.25,6.25,0,0,1-5.32-.31,1.35,1.35,0,0,1-.61-1.37c9-1.7,16.11-5.52,18-15.46A17.82,17.82,0,0,0,417,405.94Z" style="fill:#c9c964"/><path d="M240.05,189c-8.71-1.63-14.28-7.54-16-17-1.27-2.2.33-4.8-1-7-2.82-11.35-9.81-15.92-24-16-29.59-.09-59.17,0-88.76,0a19.56,19.56,0,0,1-19.81-16.09c-.52-2.47-.28-3.94,2.59-3.94,1.56-1.95,3.8-1.74,5.91-1.81,3.63-.12,7.26,0,10.89-.08,9.15-.18,15.74-4.17,19.25-12.84.78-1.93,1.22-4.24,3.85-4.71,13.33,0,26.67,0,40,0h43.64c2.76.21,5.58-.46,8.31.39a1.8,1.8,0,0,1,0,2.16c-1.72,1.91-4.28,2.84-5.84,5a16.06,16.06,0,0,0-4.5,9.53,15.28,15.28,0,0,1,0,4.82,13.45,13.45,0,0,0,1.67,5.66,20.48,20.48,0,0,0,4.88,6,17.66,17.66,0,0,0,9.83,4.28c1.79-.39,3.57,0,5.35.07a15.88,15.88,0,0,1,5.75,0,16.81,16.81,0,0,1,6,0,19.4,19.4,0,0,1,6.88,0,17.45,17.45,0,0,1,6,0,17.7,17.7,0,0,1,6,0,17.45,17.45,0,0,1,6,0,19.51,19.51,0,0,1,6.9,0,17.5,17.5,0,0,1,6,0,17.64,17.64,0,0,1,6,0,17.45,17.45,0,0,1,6,0,19.51,19.51,0,0,1,6.9,0,17.39,17.39,0,0,1,6,0,17.4,17.4,0,0,1,6,0,16.65,16.65,0,0,1,5.89,0,17.29,17.29,0,0,1,6.53.21,28.3,28.3,0,0,1,5.85,2.08,19.21,19.21,0,0,1,8.67,6.85,33.2,33.2,0,0,1,3.33,7.39,7.17,7.17,0,0,1,.29,2.16A50.32,50.32,0,0,0,349.88,177a35.1,35.1,0,0,0,3.07,5.09,8.28,8.28,0,0,0,2.46,2.22c3.81,2.15,7.71,3.91,12.27,3.2a41.56,41.56,0,0,0,6.41-.24c2.29-.6,4.52.11,6.77.22,1.72,0,3.44.05,5.16,0,2.3-.66,4.59-.15,6.89,0a37.83,37.83,0,0,0,6-.2c2.32-.64,4.59.07,6.88.2,1.7,0,3.4,0,5.09,0,4.19-.48,8.18,1.28,12.33,1.07a21.91,21.91,0,0,1,6.68,2.22,13.09,13.09,0,0,1,2.94,2.31c2,2.35,4.49,4.42,5.57,7.5a15.45,15.45,0,0,1,1.93,6.67,10.83,10.83,0,0,1-.14,1.7,4.57,4.57,0,0,1-1.38,2.28c-2,1.6-4.42,1.2-6.71,1.2q-22.15.08-44.3,0a24.08,24.08,0,0,0-6.88.77c-5.82,1.35-10.17,4.34-11.7,10.49-.9,1.92-.5,4.32-2.25,5.91-1.81,1.26-3.88.72-5.86.85h-50c-1.75,0-3.49,0-5.24,0-1.51-.05-3-.08-3.9-1.64,12.08-5.55,16.94-15.84,12.8-27-2.73-7.37-8.6-10.49-15.8-11.87-1.73-.9-3.59-.45-5.38-.45-16.23,0-32.46,0-48.69-.05C243.3,189.45,241.61,189.85,240.05,189Z" style="fill:#c9c964"/><path d="M299,430h6a8.08,8.08,0,0,0,6,0q27.84,0,55.68,0c1.8,0,3.67-.37,5.33.7-.25,1.06-1.11,1.43-2,1.75a31.26,31.26,0,0,0-3.63,1.67,14.07,14.07,0,0,0-4.53,3.58c-2.07,2-3.89,4.12-4.47,7a44,44,0,0,0-.85,5.34,56.65,56.65,0,0,0,.86,6.08c.42,2.77,2.29,4.73,3.84,6.86a15.68,15.68,0,0,0,6.53,4.37,12.19,12.19,0,0,1,2.16.45c1.77.7,3.72.64,5.52,1.25,6.8.86,13.63.33,20.44.37,15.3.09,30.61,0,45.91,0,10.23.05,20.45-.1,30.67.07a18.92,18.92,0,0,1,7.54,3,29.75,29.75,0,0,1,3.69,3.5c.86,1.07,1.83,2.07,2.59,3.23a17.39,17.39,0,0,1,1.88,3,13.35,13.35,0,0,1,1.3,5.59c.18,1.86.82,3.64.93,5.52-.19,2.11.85,3.85,1.77,5.61a11.26,11.26,0,0,0,2,3.3,14.17,14.17,0,0,0,4.52,3.73c2.15,1.18,4.16,2.74,6.84,2.48a28.78,28.78,0,0,1,4.91.19,10.25,10.25,0,0,0,8,.07,10.86,10.86,0,0,1,4.47-.05,10.62,10.62,0,0,0,8.1,0,12.53,12.53,0,0,1,4.65.05c2.47.71,4.94,1.09,7.4-.06a14.57,14.57,0,0,1,4.66,0,10.11,10.11,0,0,0,7.4.07,18.45,18.45,0,0,1,5.45-.1c1.76.33,3.54.62,5.28,1.1,2.55,1.07,5.49,1.46,7.28,3.95a1.92,1.92,0,0,1,0,1.45,6.26,6.26,0,0,1-4.32,2c-6,.83-9.51,4.54-11.5,10a6.34,6.34,0,0,0,0,5.84c2.19,5.92,6.1,9.7,12.63,10.38,1.74.18,3.8.16,4.22,2.62-1.23,3.93-4.39,5.11-8,5.66a13.6,13.6,0,0,1-5.58.88,15.39,15.39,0,0,1-5.78.07,16.64,16.64,0,0,1-5.93,0,19.28,19.28,0,0,1-6.86,0,17.7,17.7,0,0,1-6,0,17.7,17.7,0,0,1-6,0,17.45,17.45,0,0,1-6,0,19.51,19.51,0,0,1-6.9,0,17.45,17.45,0,0,1-6,0,17.7,17.7,0,0,1-6,0,17.45,17.45,0,0,1-6,0,19.51,19.51,0,0,1-6.9,0,17.45,17.45,0,0,1-6,0,17.7,17.7,0,0,1-6,0,17.45,17.45,0,0,1-6,0,19.45,19.45,0,0,1-6.89,0,17.27,17.27,0,0,1-6,0,17,17,0,0,1-5.91,0,16.82,16.82,0,0,1-5.75,0c-2.16,0-4.36.46-6.41-.66a2.11,2.11,0,0,1-1-1.26c8.49-1.92,13.82-7.35,15.57-15.64,1.68-7.89-.94-14.78-7.21-20.08a17.85,17.85,0,0,0-9.47-4c-1.72-.92-3.58-.46-5.36-.47-16.22,0-32.44,0-48.65,0-1.63,0-3.32.39-4.88-.43-7.61-.64-13.31-6.34-16.08-16.07-1.27-2.53.37-5.42-1-7.95-3.16-9.65-8.93-14.21-19-15-8.9-1.1-17.84-.19-26.75-.49-2.59.31-3.54-1.41-4.07-3.47-2.35-9.1-8.79-13.29-17.56-14.73a28.46,28.46,0,0,0-7.41-.82q-21.92.06-43.84,0a41.46,41.46,0,0,0-9.88,1c-1.66.11-3.25,0-4.43-1.38,0-10,5.66-17.09,16-20.06,10.37-1.07,20.77-.16,31.16-.5,2.28-.08,4.62.52,6.84-.46h6A10.8,10.8,0,0,0,299,430Z" style="fill:#d3d26a"/><path d="M214,1.21Q259.4,1.12,304.77,1c10.64,0,21.27.12,31.91.18,2.15,1.27,2.65,3.35,2.77,5.63a12.55,12.55,0,0,1-.1,4.77c-.8,2.14-1,4.48-2.09,6.52A28.41,28.41,0,0,1,330.55,26a16.65,16.65,0,0,1-6.7,3.56c-2.26,1.15-4.69,1-7.11,1H299.59c-1.94.14-3.94-.39-5.8.56-2.41.73-4.48,2.17-6.72,3.25-2,.67-2.77,2.59-3.91,4.1-.34.54-.71,1-1.07,1.57a20.61,20.61,0,0,0-2,4.6A8.8,8.8,0,0,0,279.5,49a29.4,29.4,0,0,0,1.62,6.46,6,6,0,0,1,.32,1.35c.15,1.14.65,2.26.39,3.45-1.69,3.7-5.64,6-6.49,10.2a7.08,7.08,0,0,0,0,6.36,13.8,13.8,0,0,0,10.32,10,88.69,88.69,0,0,0,26.13-.18c6.85-1.77,10.17-6.39,10.75-13.26.18-2.13.09-4.42,2.49-5.58,7.52-.79,15.06,0,22.59-.25,2.46-.08,4.93,0,7.39,0a9.43,9.43,0,0,1,5.83.69,54.49,54.49,0,0,1,6.33,2.63,13.77,13.77,0,0,1,4.54,3.51c.84,1.4,1.8,2.72,2.66,4.11a25.54,25.54,0,0,1,1.93,3.84,14.1,14.1,0,0,1,1.21,5.87c.49,2.37-.26,4.58-.85,6.81-.33,2.63-1.86,4.64-3.41,6.65a14.86,14.86,0,0,1-4.61,4.79,22,22,0,0,1-8.38,4,8.86,8.86,0,0,1-4.4.18c-36.44-.24-72.87,0-109.3-.13-2.53,0-5.41.87-7.4-1.72,7.33-3.32,12.94-8.07,13.88-16.68,1-9.2-2.56-16.15-10.4-21A14.67,14.67,0,0,0,234,69c-1.9-.91-3.92-.44-5.87-.45q-24.87-.06-49.74,0c-1.79,0-3.65-.45-5.37.46-8.72-1.53-14.26-6.66-17-15a21.14,21.14,0,0,1,0-10c2.81-10,11.74-15,20.31-15,6.31,0,12.62.12,18.92,0,13.41-.33,22.23-11.76,19.31-24.85C214.36,3.17,214.2,2.19,214,1.21Z" style="fill:#cac964"/><path d="M155,245c1.92-3.93,1.89-9.43,8-10,3.41-1.52,6.4,1,9.68,1,9.79,0,19.57.08,29.35,0,4-.05,7.33-1.86,10.46-4.15,1.58-1.16,2.92-2.8,5.21-2.49,21.35.39,42.71.06,64.07.18,2.48,0,5-.08,7.44.06,2.48,2.6-.67,3-1.65,4.31a14.27,14.27,0,0,0-5.52,5.05,17,17,0,0,0-3,6.54c-.92,1.69-.54,3.53-.62,5.31-.13,2.18.94,4,1.71,5.93a7.66,7.66,0,0,1,.65,4.22c-1.38,3.64-5.15,6-5.59,10.12a6.7,6.7,0,0,0,.05,5.75c1.92,5.31,5.24,9.06,11.1,10a84,84,0,0,0,24.43-.12c7.22-1.27,10.62-6,11.63-12.85.29-1.94.31-4,2.47-5.06,8-.69,16.09-.06,24.12-.28a41.8,41.8,0,0,1,4.19.15,34.61,34.61,0,0,1,7.82,3.21,21,21,0,0,1,3.9,3.39,25.92,25.92,0,0,1,4.15,6.88,21.12,21.12,0,0,1,1.3,5.72c.24,1.86.43,3.74.74,5.59-.08,2.67,1.18,4.76,2.86,6.68.42.57.88,1.11,1.25,1.73a19.68,19.68,0,0,0,6.91,5.3c1.26.56,3.27,1.62.72,3.32q-56,0-112,0c-1.62,0-3.32.4-4.88-.45-8.08,1.75-18.1-8.53-19-16-1.15-1.5.2-3.47-.95-5-.37-10.81-8.19-18.66-19-19.07-3.24-1-6.57-.41-9.86-.43-14.09-.08-28.19,0-42.28-.05-1.63,0-3.33.42-4.87-.48-8.71-1.31-13-7.08-15-15A18.16,18.16,0,0,1,155,245Z" style="fill:#c9c964"/><path d="M83.89,426.91c1.45-10.41,8.85-17,19.27-17,7.8,0,15.66.55,23.4-.14a19.88,19.88,0,0,1,21.62,20.11c-3.88,13.51-8.94,17.33-22.83,17.26-6.82,0-13.67-.44-20.45.08C92.88,448.15,83.05,439.17,83.89,426.91Z" style="fill:#fffdfe"/><path d="M132.14,110c-2.54,12.77-9.9,19-22.67,19-5.47,0-10.93,0-16.39,0-6.85-2.44-12.89-5.51-15.75-13.11-4.6-12.22,4-26.22,17-26.77,6.14-.27,12.31-.23,18.45,0a19.65,19.65,0,0,1,18.33,16.13c.25,1.3.67,2.56,1,3.85.35.21.47.42.35.62S132.26,110,132.14,110Z" style="fill:#f4e600"/><path d="M451,606.9c-6-1.31-10-5.24-11-11-1.07-1.69,0-3.73-.88-5.44-1.05-2.86.34-5.19,1.62-7.55a8.67,8.67,0,0,1,1.44-1.85c2.13-1.85,4.24-3.73,7-4.6a12.61,12.61,0,0,1,7.06-1h11.73a36.47,36.47,0,0,0,6-.25c2.32-.6,4.59.1,6.89.23,1.72,0,3.45,0,5.17,0h6.9a36.6,36.6,0,0,0,6-.25c2.32-.6,4.58.09,6.87.23,1.69,0,3.39,0,5.08,0,2.2,0,4.41,0,6.61,0,2.2-.2,4.2.69,6.26,1.2a17.45,17.45,0,0,1,7.09,4.64,14.25,14.25,0,0,1,3.51,6.92c.19,1.85.1,3.71.11,5.56a10.12,10.12,0,0,1-2.29,7.58,14.94,14.94,0,0,1-9.72,7,7.88,7.88,0,0,1-3.58.19c-20.8-2.18-41.67-.73-62.49-1.17C454.55,607.33,452.69,607.82,451,606.9Z" style="fill:#e6e467"/><path d="M512,390.71c-.31,9.62-4.35,14.62-13.1,16.24A130.8,130.8,0,0,1,474,407c-7.54-1.25-12.13-6-13.05-13.34a20.5,20.5,0,0,0-.93-3.27,5.61,5.61,0,0,1,.08-2.73,34.19,34.19,0,0,1,2.94-5.5,14.46,14.46,0,0,1,4.73-4.51,10.42,10.42,0,0,1,6.63-2.13c1.9,0,3.81,0,5.72,0H498.4a12.09,12.09,0,0,1,7.89,3.12,21,21,0,0,1,3.32,2.93,16.24,16.24,0,0,1,2.79,5.8C512.65,388.48,513,389.67,512,390.71Z" style="fill:#e6e467"/><path d="M368,222.93c.77-6.57,5.56-9.09,11-11,1.56-.88,3.26-.46,4.89-.46,13,0,25.94-.14,38.91,0a226,226,0,0,0,22.84-1c.88,0,1.77,0,2.65,0a11.74,11.74,0,0,1,8.19,3.28,15.29,15.29,0,0,1,3.94,4.78,11.29,11.29,0,0,1,2.05,7.36,9.65,9.65,0,0,1-.83,5.24c-.66,2.73-2.3,4.94-3.8,7.23a7,7,0,0,1-2.34,1.93,26.49,26.49,0,0,1-7.1,3c-1.89.22-3.79.13-5.68.18-2.24.25-4.47.65-6.71.05-2-.11-4-.05-6-.06h-6c-2,0-4,0-6,0-2.29.18-4.59.73-6.89.06-2-.13-4-.05-6-.07h-6c-2,0-4,0-6,0-2.24.12-4.49.75-6.74.07-1.91-.16-3.83,0-5.73-.16a23.46,23.46,0,0,1-6.72-2.3,12,12,0,0,1-3-2.54c-2.26-2.65-5.12-5.08-3.59-9.21C368,227.27,366.82,225,368,222.93Z" style="fill:#e6e467"/><path d="M285,288c-6.46-.87-9.5-5.17-11-11a8.47,8.47,0,0,1,0-6c-.34-4.88,3.22-7.35,6.3-10.12,2.82-4.71,7.72-3.68,12-4.34h6.79c3.66,0,7.33-.09,11,.11a33.33,33.33,0,0,1,6.75,2.14,20.89,20.89,0,0,1,4.89,4.35,18.21,18.21,0,0,1,2.48,4.21,3,3,0,0,1-.11,2.68c.72,10.39-3.32,16.42-12.08,18A150.3,150.3,0,0,1,285,288Z" style="fill:#e6e467"/></g></g></svg>