<svg xmlns="http://www.w3.org/2000/svg" viewBox="0 0 2730 1660.52"><g id="Layer_2" data-name="Layer 2"><g id="_ëîé_1" data-name="‘ëîé_1"><path d="M2538.41,1657s182.92-232.2,89.94-863C2462.39-332.1,280.4-127,471.43,583.26c120.1,446.52-612.32,361.13-331.5,1074.35Z" style="fill:#f9ddbf;opacity:0.4"/><rect x="773.16" y="235.71" width="1129.62" height="754.53" style="fill:#82b378"/><path d="M1923.47,1006.72h-1171V219.22h1171ZM773.16,990.24H1902.78V235.71H773.16Z" style="fill:#eac3a0"/><rect x="735.4" y="982.85" width="1206.93" height="23.24" rx="11.3" style="fill:#d39e7a"/><rect x="1636.64" y="967.46" width="49.4" height="15.39" rx="7.48" style="fill:#fff"/><rect x="1428.89" y="967.46" width="28.61" height="15.39" rx="5.69" style="fill:#fff"/><rect x="1370.59" y="967.46" width="49.83" height="15.39" rx="7.48" style="fill:#fff"/><rect x="2074.22" y="361.48" width="185.24" height="179.71" rx="13.25" style="fill:#eac3a0"/><rect x="2082.24" y="369.26" width="169.19" height="164.14" rx="12.1" style="fill:#ffeede"/><path d="M2163,385.67a3.84,3.84,0,1,1,3.83,3.83A3.84,3.84,0,0,1,2163,385.67Z" style="fill:#eac3a0"/><path d="M2194,391.09a3.84,3.84,0,1,1,1.49,5.22A3.84,3.84,0,0,1,2194,391.09Z" style="fill:#eac3a0"/><path d="M2220.49,412.16a3.84,3.84,0,1,1-1.15,5.31A3.84,3.84,0,0,1,2220.49,412.16Z" style="fill:#eac3a0"/><path d="M2233.62,444.78a3.84,3.84,0,1,1-3.83,3.84A3.84,3.84,0,0,1,2233.62,444.78Z" style="fill:#eac3a0"/><path d="M2226.92,482.64a3.84,3.84,0,1,1-5.43,0A3.83,3.83,0,0,1,2226.92,482.64Z" style="fill:#eac3a0"/><path d="M2202.82,506.8a3.84,3.84,0,1,1-5.43,0A3.83,3.83,0,0,1,2202.82,506.8Z" style="fill:#eac3a0"/><path d="M2163,519.25a3.84,3.84,0,1,1,3.83,3.83A3.84,3.84,0,0,1,2163,519.25Z" style="fill:#eac3a0"/><path d="M2139.59,391.09a3.84,3.84,0,1,0-1.49,5.22A3.84,3.84,0,0,0,2139.59,391.09Z" style="fill:#eac3a0"/><path d="M2113.06,412.16a3.84,3.84,0,1,0,1.15,5.31A3.84,3.84,0,0,0,2113.06,412.16Z" style="fill:#eac3a0"/><path d="M2099.92,444.78a3.84,3.84,0,1,0,3.84,3.84A3.84,3.84,0,0,0,2099.92,444.78Z" style="fill:#eac3a0"/><path d="M2106.63,482.64a3.84,3.84,0,1,0,5.43,0A3.83,3.83,0,0,0,2106.63,482.64Z" style="fill:#eac3a0"/><path d="M2130.73,506.8a3.83,3.83,0,1,0,5.42,0A3.83,3.83,0,0,0,2130.73,506.8Z" style="fill:#eac3a0"/><path d="M2165.8,448.62a3.84,3.84,0,1,1,3.84,3.84A3.84,3.84,0,0,1,2165.8,448.62Z" style="fill:#eac3a0"/><rect x="2169.11" y="400.68" width="1.05" height="47.94" style="fill:#eac3a0"/><rect x="2165.71" y="437.01" width="32.31" height="3.14" transform="translate(194.75 1440.7) rotate(-38.13)" style="fill:#eac3a0"/><path d="M662.64,1230.81v10.67c0,3.74-1.21,6.79-2.68,6.79H270.51c-1.48,0-2.69-3-2.69-6.79v-10.67c0-3.73,1.21-6.79,2.69-6.79H660C661.43,1224,662.64,1227.08,662.64,1230.81Z" style="fill:#d39e7a"/><path d="M662.64,1230.81v10.67c0,3.74-1.11,6.79-2.46,6.79H351c-1.36,0-2.47-3-2.47-6.79v-10.67c0-3.73,1.11-6.79,2.47-6.79H660.18C661.53,1224,662.64,1227.08,662.64,1230.81Z" style="fill:#efcbab"/><rect x="287.59" y="1248.27" width="276.49" height="402.99" style="fill:#eac3a0"/><rect x="365.07" y="1248.27" width="276.49" height="402.99" style="fill:#f9ddbf"/><path d="M626.7,1629H379.93V1259.66H626.7Zm-244.11-2.67H624v-364H382.59Z" style="fill:#eac3a0"/><rect x="381.26" y="1381.84" width="244.11" height="2.66" style="fill:#eac3a0"/><rect x="381.26" y="1506.41" width="244.11" height="2.67" style="fill:#eac3a0"/><path d="M528.33,1283.48H483a4,4,0,0,1-4-4h0a4,4,0,0,1,4-4h45.3a4,4,0,0,1,4,4h0A4,4,0,0,1,528.33,1283.48Z" style="fill:#eac3a0"/><path d="M528.33,1405.29H483a4,4,0,0,1-4-4h0a4,4,0,0,1,4-4h45.3a4,4,0,0,1,4,4h0A4,4,0,0,1,528.33,1405.29Z" style="fill:#eac3a0"/><path d="M528.33,1532.28H483a4,4,0,0,1-4-4h0a4,4,0,0,1,4-4h45.3a4,4,0,0,1,4,4h0A4,4,0,0,1,528.33,1532.28Z" style="fill:#eac3a0"/><path d="M2174.81,1646.66h.48a5,5,0,0,0,5-5.15l-7.63-330.86L2150.2,1308l19.18,333.51A5.43,5.43,0,0,0,2174.81,1646.66Z" style="fill:#eac3a0"/><path d="M2305.84,1646.66h.48a5,5,0,0,0,5-5.15l-7.64-330.86-22.48-2.63,19.17,333.51A5.45,5.45,0,0,0,2305.84,1646.66Z" style="fill:#eac3a0"/><path d="M1944.26,1646.66h-.48a5,5,0,0,1-5-5.15l7.63-330.86,22.49-2.63-19.18,333.51A5.45,5.45,0,0,1,1944.26,1646.66Z" style="fill:#eac3a0"/><path d="M2320.74,1290.13V1063.4a72.23,72.23,0,0,0-72.23-72.23H2085.16a72.23,72.23,0,0,0-72.23,72.23v235.39Z" style="fill:#efcbab"/><path d="M2005.35,1290.13h315.39a0,0,0,0,1,0,0v35.79a0,0,0,0,1,0,0H1983.66a0,0,0,0,1,0,0v-14.1A21.69,21.69,0,0,1,2005.35,1290.13Z" transform="translate(4304.4 2616.05) rotate(180)" style="fill:#eac3a0"/><rect x="1929.83" y="1290.13" width="270.68" height="35.79" rx="16.04" transform="translate(4130.34 2616.05) rotate(180)" style="fill:#f9ddbf"/><path d="M2478.06,1653.58h.63a6.87,6.87,0,0,0,6.66-7.21l-10.1-463.25-29.73-3.67,25.36,467A7.38,7.38,0,0,0,2478.06,1653.58Z" style="fill:#d39e7a"/><path d="M1752.82,1653.58h-.63a6.87,6.87,0,0,1-6.66-7.21l10.1-463.25,29.73-3.67-25.36,467A7.37,7.37,0,0,1,1752.82,1653.58Z" style="fill:#d39e7a"/><rect x="1703.13" y="1159.27" width="842.46" height="32.37" rx="11.52" style="fill:#d39e7a"/><path d="M1777.38,1112.93h74.12a10.43,10.43,0,0,1,10.43,10.43v5a10.67,10.67,0,0,1-10.67,10.67h-73.89a0,0,0,0,1,0,0v-26.1A0,0,0,0,1,1777.38,1112.93Z" style="fill:#fcecdb"/><path d="M1925,1123.67v3.92a11.29,11.29,0,0,1-1.55,5.75,11.42,11.42,0,0,1-9.88,5.69H1775.12a1.66,1.66,0,0,1-1.66-1.66v-.59a1.66,1.66,0,0,1,1.66-1.66h84.4a10.18,10.18,0,0,0,1.18-1.78,10.56,10.56,0,0,0,1.24-5v-5a10.38,10.38,0,0,0-2.3-6.53h-84.52a1.65,1.65,0,0,1-1.66-1.65v-.59a1.66,1.66,0,0,1,1.66-1.66h139.15a10.72,10.72,0,0,1,10.73,10.74Z" style="fill:#699dee"/><path d="M1924.59,1120.71h-63a10.54,10.54,0,0,0-2-3.88h-84.52a1.65,1.65,0,0,1-1.66-1.65v-.59a1.66,1.66,0,0,1,1.66-1.66h139.15A10.74,10.74,0,0,1,1924.59,1120.71Z" style="fill:#548ee2"/><polygon points="1777.38 1125.98 1787.63 1126.42 1777.38 1126.68 1777.38 1125.98" style="fill:#f4d2b8"/><polygon points="1777.38 1130.07 1801.77 1130.51 1777.38 1130.78 1777.38 1130.07" style="fill:#f4d2b8"/><path d="M1795,1159.27h78.66V1139h-79.3a9.84,9.84,0,0,0-9.83,9.83h0A10.47,10.47,0,0,0,1795,1159.27Z" style="fill:#b5453c"/><path d="M1858.92,1139h89.52a10.22,10.22,0,0,1,10.22,10.22v.08a10,10,0,0,1-10,10h-89.74a0,0,0,0,1,0,0V1139a0,0,0,0,1,0,0Z" transform="translate(3817.58 2298.24) rotate(180)" style="fill:#fcecdb"/><path d="M1852.94,1159.27h108.83a1.52,1.52,0,0,0,1.52-1.52h0a1.52,1.52,0,0,0-1.52-1.52H1852.94a1.52,1.52,0,0,0-1.51,1.52h0A1.52,1.52,0,0,0,1852.94,1159.27Z" style="fill:#b5453c"/><path d="M1852.94,1142h108.83a1.52,1.52,0,0,0,1.52-1.52h0a1.52,1.52,0,0,0-1.52-1.52H1852.94a1.52,1.52,0,0,0-1.51,1.52h0A1.52,1.52,0,0,0,1852.94,1142Z" style="fill:#b5453c"/><polygon points="1958.66 1149.12 1946.57 1149.46 1958.66 1149.67 1958.66 1149.12" style="fill:#f4d2b8"/><polygon points="1958.66 1144.45 1929.89 1144.79 1958.66 1145 1958.66 1144.45" style="fill:#f4d2b8"/><path d="M1930.19,1144.72a4.79,4.79,0,0,1,1.64,2.31,3.43,3.43,0,0,1,.13.8c.06,1.91,0,6.22,0,6.22l3.64-2.16,3.63,2.16v-5.85a4.62,4.62,0,0,0-.89-2.88,1.38,1.38,0,0,0-1-.6Z" style="fill:#699dee"/><path d="M1930.19,1144.72a4.79,4.79,0,0,1,1.64,2.31l7.29.08s-.28-2-1.79-2.39Z" style="fill:#568cdb"/><path d="M1888.61,1093.43h42.61a5.63,5.63,0,0,1,5.63,5.63v7.88a6,6,0,0,1-6,6h-42.24a0,0,0,0,1,0,0v-19.5A0,0,0,0,1,1888.61,1093.43Z" style="fill:#f99746"/><path d="M1767.78,1093.43h132.47a9.31,9.31,0,0,1,9.31,9.31v.66a9.53,9.53,0,0,1-9.53,9.53H1767.78a0,0,0,0,1,0,0v-19.5A0,0,0,0,1,1767.78,1093.43Z" style="fill:#fcecdb"/><rect x="1761.2" y="1110.01" width="159.01" height="2.92" rx="1.41" style="fill:#f99746"/><rect x="1761.2" y="1093.43" width="159.01" height="2.92" rx="1.41" style="fill:#f99746"/><polygon points="2448.3 1146.05 2442.72 1146.05 2442.72 1049.9 2499.84 904.14 2397.85 825.1 2401.27 820.69 2506.57 902.29 2448.3 1050.96 2448.3 1146.05" style="fill:#eac3a0"/><path d="M2386.32,835.17h0a5.7,5.7,0,0,1-1.35-7.94l8.5-12a5.69,5.69,0,0,1,7.94-1.35h0a5.7,5.7,0,0,1,1.35,7.94l-8.5,12A5.69,5.69,0,0,1,2386.32,835.17Z" style="fill:#eac3a0"/><circle cx="2501.93" cy="902.46" r="7.39" style="fill:#eac3a0"/><path d="M2399,918.1c-.27.29-.53.59-.81.87l-.06.06q-.39.44-.78.84c-7.63,6.62-32.92-5.24-57.38-27.12s-39.07-45.68-33.34-54c.24-.3.48-.59.74-.88l.06-.06c.25-.31.51-.6.78-.9A60.9,60.9,0,1,1,2399,918.1Z" style="fill:#f99746"/><path d="M2398.16,919l0,0-.25.31a5.53,5.53,0,0,1-.55.53c-7.62,6.62-32.91-5.24-57.37-27.12s-39.07-45.68-33.35-54c.16-.21.31-.41.48-.6a1.85,1.85,0,0,1,.28-.28l.05-.07c5.19-4.91,19.29-.53,35.77,10.14A180.76,180.76,0,0,1,2365,864.75a189.06,189.06,0,0,1,15.57,15.6C2395.39,897.2,2402.87,912.75,2398.16,919Z" style="fill:#f9ddbf"/><path d="M2380.55,880.35a25.1,25.1,0,0,1-37.38-32.41A180.76,180.76,0,0,1,2365,864.75,189.06,189.06,0,0,1,2380.55,880.35Z" style="fill:#fff0e3"/><path d="M2426.76,1143.28h35.13a10.74,10.74,0,0,1,10.74,10.74v5.26a0,0,0,0,1,0,0h-56.19a0,0,0,0,1,0,0v-5.67A10.32,10.32,0,0,1,2426.76,1143.28Z" style="fill:#eac3a0"/><rect x="2439.58" y="1056.71" width="11.8" height="89.34" style="fill:#eac3a0"/><path d="M1244.31,1242.14l48.58-195.38L1636,1132.07Zm64.19-169.42L1274,1211.55l278.35-78.21Z" style="fill:#f9ddbf"/><rect x="1397.06" y="1087.34" width="16.32" height="105.92" transform="translate(316.63 -305.35) rotate(13.96)" style="fill:#eac3a0"/><path d="M1147.84,1208.17c-23.54,146.51-42.94,304.39-34.54,387.52,6.91,23.27,28.3,31,47.2,34l-13,14.17-36.58,2.09-48.81-19.23s2.82-9.64,5.06-26.46c2.59-19.55-6.46-64.22-6.46-64.22s-23.81-154.28-10.26-188.93c3.84-9.84,6.38-21.11,7.94-33.34v0c4-31.15,1.76-68.62-.87-105-2.85-39.56-6.15-77.87-2.41-105.53,17.06-126.23,17.26-235.41,17.26-235.41h95.79s27.14,77.11,14.49,143.22C1171.92,1067.26,1159.38,1136.35,1147.84,1208.17Z" style="fill:#ffb27d"/><path d="M1058.4,1313.79c4-31.15,1.76-68.62-.87-105l70.72-28.61,19.59,28C1144.84,1211.85,1092.21,1273.93,1058.4,1313.79Z" style="fill:#f3a36c"/><path d="M1333.6,771s10.85-11.46,18.61-17.14,29.57-11.35,31.79-1.82c1,4.23-6.68,13.6-12.19,16.94s-6.37,7.58-12.24,13.56-20.2,6.27-20.2,6.27Z" style="fill:#ffb27d"/><path d="M1014.86,676.25c-4.56-8.8,99.57-40.5,101.22,46.37,0,0,195.07-4.8,101.93-113.52-32.25-37.64-28.93-68.76-28-97.73s-20.09-113.18-92.29-104.7c0,0-18.91-7.7-42.5,4.55C1001.59,439.06,881.38,708.28,1014.86,676.25Z" style="fill:#233862"/><path d="M1150.14,779.62A190.61,190.61,0,0,0,1169.56,809c15.09,18.89,38.35,40.72,67.56,45,14,2.06,27.6-.94,40.14-6.51h0c35.47-15.75,62.15-52,62.15-52,6.25-17-4-28.61-4-28.61S1263.85,783,1257,779.62s-46.62-118.06-56.09-132.47-41.77-21.89-41.77-21.89Z" style="fill:#adc8fe"/><path d="M1169.56,809c15.09,18.89,38.35,40.72,67.56,45,14,2.06,27.6-.94,40.14-6.51-1.38.18-36.82,4.56-50.94-20.71-14.4-25.77-30-66.71-51.38-53.06C1165.71,779.63,1166.12,794.26,1169.56,809Z" style="fill:#8eb3ef"/><path d="M948.15,1652.6h-33c-9.59,0-20.52-7.35-23.19-24.67s-22.38-26.77-26.65-40.94c-2.93-9.74,4-16.69,10.55-22,3-2.46,5.93-4.57,7.79-6.46,6.71-6.77,13.05-36,13.05-36l34.81,18.31s-16.4,27.89-6.94,59.25c4.42,14.66,8.37,28.17,18.16,36.59a32.54,32.54,0,0,0,8,5.07C965.92,1648.54,948.15,1652.6,948.15,1652.6Z" style="fill:#ffb27d"/><path d="M973.42,722.62a489.1,489.1,0,0,0,0,56.76c1.22,20.52,22,48,24.93,54.81,7.39,17.06,15.72,19.83,15.72,19.83l64.48,15.81,22.68,5.55L1172.72,854s32.57-90.89,19.49-142.06-33-86.7-33-86.7-82.2-21.38-145.88-2.78Z" style="fill:#adc8fe"/><path d="M1018.16,864.53s-54,72.47-59,121.46,42.72,184.58,32,232.33c-8,35.45-50.41,63.56-62.13,152.92-4.07,31-18.76,93.13-32.31,151.2l29.93,29.37c71.28-162.45,145-264.72,149.33-300.63,3.08-25.42,17.53-159.15,76-257.86,14-23.7-8.61-117.94-8.61-117.94Z" style="fill:#ffb27d"/><path d="M1186,1031.36c-7.94,96.76-17.28,178.26-17.28,178.26s-45.12,30.41-109,34.27h0A211.2,211.2,0,0,1,963,1227.17s-13.14-233.68-4.78-270.9,45.4-88.44,45.4-88.44l166.6,6.43S1194,934.58,1186,1031.36Z" style="fill:#f99746"/><path d="M1173.83,850.81s-14.21,11.24-42.45,11.81c-33.73.68-117.3-8.6-117.3-8.6a69.08,69.08,0,0,0-3.57,21.33s102.08,25.75,161.22,3.76C1171.73,879.11,1179.36,864.76,1173.83,850.81Z" style="fill:#ed7d2b"/><path d="M1124.08,874.27c0-9.61,6.9-17.42,15.39-17.42s15.39,7.81,15.39,17.42-6.9,17.42-15.39,17.42S1124.08,883.87,1124.08,874.27Zm5.1,0c0,6.79,4.62,12.31,10.29,12.31s10.29-5.52,10.29-12.31S1145.15,862,1139.47,862,1129.18,867.47,1129.18,874.27Z" style="fill:#fff"/><rect x="949.47" y="749.79" width="138.67" height="189.81" transform="translate(1232.44 2150.78) rotate(-138.95)" style="fill:#233862"/><path d="M1037.66,871.08s38.32,4.48,38.2,13.57-9.55,27.79-14.28,28.62S1030.4,888,1030.4,888Z" style="fill:#ffb27d"/><path d="M1024.85,620.42s-51.16,3.59-70.77,51.26-56.81,127.7-56.81,141.17,20.78,55,132.4,78.84c0,0,11.54-12.15,10.84-21.75,0,0-69.67-59.85-69.48-66.84.35-13.23,11.42-30.7,72.59-91.89C1060.25,694.57,1024.85,620.42,1024.85,620.42Z" style="fill:#adc8fe"/><path d="M1326.21,907.57,1479.51,457c.71-2.05,1.65-4-.39-4.75l-1.86-.68c-2.09-.76-2.7.59-3.46,2.68L1310.38,898.34a8.59,8.59,0,0,0,4.59,10.79l3.78,1.69A5.52,5.52,0,0,0,1326.21,907.57Z" style="fill:#f9ddbf"/><path d="M1347,768.82a73.35,73.35,0,0,0,14.33-2.16c5.8-1.51,13.25-4.22,13.25-4.22,4.38,3.19-10.83,11.88-14.71,17.83-3.17,4.84-6.77,6.24-15.51,8.12Z" style="fill:#ffb27d"/><path d="M1102,1651.3c21.31-2.64,15.68,2.81,45.56,3s40.09-9.77,41.5-14c1.26-3.8-13.15-6.87-28.57-10.5l-.55.39a82.25,82.25,0,0,1-43.4,8.09c-20.07-1.85-40.59-10.06-54.44-11.45-.84,4.54-1.69,9.18-1.3,13.88C1061.89,1654,1080.69,1654,1102,1651.3Z" style="fill:#233862"/><path d="M948.15,1652.6h-33c-9.59,0-20.52-7.35-23.19-24.67s-22.38-26.77-26.65-40.94c-2.93-9.74,4-16.69,10.55-22,3.62,5.44,11.46,19,19.14,44,9,29.22,30.48,30.06,47.73,27.63a32.54,32.54,0,0,0,8,5.07C965.92,1648.54,948.15,1652.6,948.15,1652.6Z" style="fill:#233862"/><path d="M1032.89,618a30.82,30.82,0,0,0,22.52-19.58c4.3-12,7.72-29.84,7.64-52.13l3.24.64,54.43,10.78s-1.24,17.13-1.27,33.27c0,.13,0,.27,0,.4A31.32,31.32,0,0,0,1142,621.6c6.87,2-32.79,54.2-37.32,53.18C1095.28,672.64,1029.61,618.68,1032.89,618Z" style="fill:#ffb27d"/><path d="M1120.72,557.66s-1.24,17.13-1.27,33.27c-30.46-.86-46.56-28.65-53.16-44Z" style="fill:#e8945b"/><path d="M1130.89,572.94s-72.06,1.19-72.11-43.7-9.39-75,36.62-77.63,55,14.46,58.63,29.44S1149.64,571.47,1130.89,572.94Z" style="fill:#ffb27d"/><path d="M1128.23,450.51s-19.74,52.67-50,60.45-43.42-.32-43.42-.32,23.23-18.46,28-50.67C1062.84,460,1113.34,425.44,1128.23,450.51Z" style="fill:#233862"/><path d="M1123.34,454.79s14.63,5.47,20.65,16.14a72.48,72.48,0,0,1,9.74,41.21s14.87-35.8-1.84-56.05C1134.18,434.62,1123.34,454.79,1123.34,454.79Z" style="fill:#233862"/><path d="M1116.81,546.29s1.25,5.29,14.41,4.48c0,0,11-.69,10.71-6.5C1141.93,544.27,1131.22,540.13,1116.81,546.29Z" style="fill:#fff"/><path d="M1104.72,674.78s-48.75-52.07-50.58-73.35c0,0-12.42,3.45-27,17.67,0,0,11.71,29.35,25.7,39A89.25,89.25,0,0,0,1071,653.4a154.4,154.4,0,0,1-9.12,13.48S1084,679.4,1104.72,674.78Z" style="fill:#d7e6ff"/><path d="M1121.8,603.42s19.23,35.14-17.08,71.36c0,0,22.78-4.36,34.49-20.43,0,0-3.63-8.62-6.72-10.62,0,0,6.85-2.72,11.14,1.27,0,0,2.61-18.84,0-24.58S1127.44,603.23,1121.8,603.42Z" style="fill:#d7e6ff"/><path d="M1101.09,674.78a3.63,3.63,0,1,1,3.63,3.63A3.63,3.63,0,0,1,1101.09,674.78Z" style="fill:#233862"/><path d="M1120.45,726.25a3.63,3.63,0,1,1,3.63,3.63A3.63,3.63,0,0,1,1120.45,726.25Z" style="fill:#233862"/><path d="M1124.08,786.61a3.63,3.63,0,1,1,3.63,3.63A3.64,3.64,0,0,1,1124.08,786.61Z" style="fill:#233862"/><path d="M1186,1031.36c-7.94,96.76-17.28,178.26-17.28,178.26s-45.12,30.41-109,34.27c1.13-.42,37.44-14.42,64.31-45.88C1151.38,1166.06,1186,1031.36,1186,1031.36Z" style="fill:#ed7d2b"/><g style="opacity:0.6000000000000001"><path d="M1598.37,313.87h5.92l16,36.6h-6.74l-3.69-8.78h-17.18l-3.74,8.78h-6.54ZM1607.5,336l-6.28-14.54L1595,336Z" style="fill:#fff"/><path d="M1658.43,314.13h16.3c4.15,0,7.42,1.14,9.5,3.22a8.2,8.2,0,0,1,2.44,6.12c0,4.36-2.5,6.7-5.2,8.1,4.26,1.45,7.22,3.89,7.22,8.93,0,6.49-5.35,10-13.44,10h-16.82Zm15,15.31c4.1,0,6.85-1.61,6.85-5,0-2.86-2.28-4.62-6.38-4.62h-9.19v9.65Zm1.87,15.37c4.36,0,7-1.71,7-5.09,0-3.06-2.44-4.88-7.48-4.88h-10.12v10Z" style="fill:#fff"/><path d="M1726.22,332.3A18.39,18.39,0,0,1,1745,313.51a18.92,18.92,0,0,1,14.22,5.65l-4.1,4.73c-2.91-2.7-6-4.52-10.17-4.52-7,0-12,5.71-12,12.93s5,12.92,12,12.92c4.46,0,7.32-1.81,10.43-4.72l4.1,4.15c-3.79,4-7.94,6.44-14.74,6.44C1734.11,351.09,1726.22,342.84,1726.22,332.3Z" style="fill:#fff"/><path d="M1552.87,395.7h13.55c11.42,0,19.31,7.83,19.31,18.17S1577.84,432,1566.42,432h-13.55Zm13.55,30.52c7.63,0,12.61-5.14,12.61-12.35s-5-12.36-12.61-12.36h-7.17v24.71Z" style="fill:#fff"/><path d="M1625.39,395.7h26.94v5.71h-20.56v9.44H1650v5.71h-18.22v9.76h20.82V432h-27.2Z" style="fill:#fff"/><path d="M1692.09,395.7h27v5.81h-20.66v9.92h18.33v5.81h-18.33V432h-6.38Z" style="fill:#fff"/><path d="M1756.46,413.87a18.51,18.51,0,0,1,18.74-18.8c6.33,0,10.22,1.77,14,4.94l-4.05,4.82a14.21,14.21,0,0,0-10.17-3.89c-6.7,0-11.79,5.87-11.79,12.93,0,7.47,4.93,13,12.36,13a14.84,14.84,0,0,0,8.77-2.75v-6.8H1775v-5.55h15.47V427a23.18,23.18,0,0,1-15.16,5.66C1763.93,432.66,1756.46,424.56,1756.46,413.87Z" style="fill:#fff"/><path d="M1534.62,477.26H1541v15.11h17.34V477.26h6.38V513.6h-6.38V498.29H1541V513.6h-6.39Z" style="fill:#fff"/><path d="M1606.36,477.26h6.39V513.6h-6.39Z" style="fill:#fff"/><path d="M1650.8,508.25l4.2-4.3c2.13,2.7,4.26,4.25,7.32,4.25,3.43,0,5.76-2.28,5.76-7.11V477.26h6.54v24c0,4.31-1.24,7.52-3.37,9.65a12.13,12.13,0,0,1-8.83,3.22A13.65,13.65,0,0,1,1650.8,508.25Z" style="fill:#fff"/><path d="M1715.32,477.26h6.38v18.28L1739,477.26h7.84l-15.11,15.63,15.78,20.71h-7.73l-12.41-16.35-5.66,5.81V513.6h-6.38Z" style="fill:#fff"/><path d="M1784.88,477.26h6.38v30.53h19.11v5.81h-25.49Z" style="fill:#fff"/><path d="M1545.5,558.83h6.8L1563.36,576l11.05-17.18h6.8v36.34h-6.38V569.11l-11.47,17.13h-.21l-11.37-17v26h-6.28Z" style="fill:#fff"/><path d="M1622.48,558.83h5.92L1647.86,584V558.83h6.28v36.34h-5.34l-20-25.85v25.85h-6.28Z" style="fill:#fff"/><path d="M1693.8,577a19,19,0,1,1,19,18.79A18.61,18.61,0,0,1,1693.8,577Zm31.3,0c0-7.06-5.13-12.93-12.35-12.93s-12.25,5.77-12.25,12.93,5.14,12.93,12.35,12.93S1725.1,584.16,1725.1,577Z" style="fill:#fff"/><path d="M1771.46,558.83h14.33c8.46,0,13.8,4.83,13.8,12.25,0,8.15-6.54,12.41-14.53,12.41h-7.22v11.68h-6.38Zm13.81,18.9c4.82,0,7.84-2.7,7.84-6.6,0-4.25-3.07-6.48-7.84-6.48h-7.43v13.08Z" style="fill:#fff"/><path d="M1582.07,673.93a18.77,18.77,0,0,1-11.06,3.43,18.81,18.81,0,1,1,15.37-7.63l4.15,3.53-4.1,4.57Zm-4.73-4.2-6.22-5.3,4.1-4.67,6.28,5.71a12.54,12.54,0,0,0,1.87-6.9c0-7.06-5.14-12.93-12.36-12.93s-12.25,5.76-12.25,12.93,5.14,12.92,12.36,12.92A11.53,11.53,0,0,0,1577.34,669.73Z" style="fill:#fff"/><path d="M1629.72,640.4h16.2c8.51,0,13.49,4.57,13.49,11.57,0,6-3.58,9.56-8.67,11l9.82,13.76H1653l-9-12.67h-7.89v12.67h-6.39Zm15.73,18c4.57,0,7.47-2.39,7.47-6.18s-2.8-6-7.52-6h-9.29v12.2Z" style="fill:#fff"/><path d="M1696.74,671.44l3.84-4.57c3.48,3,7,4.73,11.47,4.73,4,0,6.44-1.82,6.44-4.68,0-2.59-1.46-4-8.2-5.6-7.74-1.82-12.1-4.1-12.1-10.9,0-6.23,5.19-10.54,12.41-10.54a20.12,20.12,0,0,1,13.18,4.57l-3.42,4.83c-3.28-2.44-6.55-3.74-9.87-3.74-3.74,0-5.92,1.92-5.92,4.41,0,2.8,1.67,4,8.62,5.71,7.68,1.87,11.68,4.62,11.68,10.75,0,6.8-5.35,10.85-13,10.85A22.39,22.39,0,0,1,1696.74,671.44Z" style="fill:#fff"/><path d="M1773.25,646.32h-11.52V640.4h29.48v5.92h-11.52v30.42h-6.44Z" style="fill:#fff"/><path d="M1575.24,742.89V722h6.39v20.66c0,6.74,3.47,10.38,9.18,10.38s9.14-3.43,9.14-10.12V722h6.39v20.6c0,10.85-6.13,16.3-15.63,16.3S1575.24,753.42,1575.24,742.89Z" style="fill:#fff"/><path d="M1643.92,722H1651l11,27.92,10.9-27.92h6.9l-15.1,36.59H1659Z" style="fill:#fff"/><path d="M1715.09,722h6.9l8.67,26.94,8.93-27h5.4l8.92,27,8.67-26.94h6.7l-12.67,36.59h-5.5l-8.93-26.11-8.93,26.11h-5.5Z" style="fill:#fff"/><path d="M1598.65,821.39l-12.71-17.86h7.52l9,13,9.08-13h7.32l-12.67,17.76,13.19,18.58h-7.53l-9.55-13.76-9.6,13.76h-7.32Z" style="fill:#fff"/><path d="M1668.63,825.54l-14.43-22h7.52l10.18,16.1,10.28-16.1h7.32l-14.44,21.86v14.48h-6.43Z" style="fill:#fff"/><path d="M1725.73,835.15l21.44-26H1726.4v-5.66h29.07v4.73l-21.44,26h21.44v5.66h-29.74Z" style="fill:#fff"/></g><rect y="1652.74" width="2730" height="7.78" rx="3.21" transform="translate(2730 3313.27) rotate(180)" style="fill:#2e3552"/><rect x="2298.49" y="1053.01" width="6.54" height="77.03" transform="translate(-144.05 379.12) rotate(-9.13)" style="fill:#b5453c"/><polygon points="2293.5 1040.1 2292.43 1054.01 2298.88 1052.97 2293.5 1040.1" style="fill:#f9ddbf"/><rect x="2355.27" y="1059.35" width="6.54" height="77.03" transform="translate(240.16 -412.27) rotate(10.52)" style="fill:#b5453c"/><polygon points="2368.05 1046.66 2362.36 1059.4 2368.79 1060.59 2368.05 1046.66" style="fill:#efcbab"/><rect x="2347.12" y="1037.13" width="6.53" height="77.03" transform="translate(235.97 -411.15) rotate(10.52)" style="fill:#b5453c"/><polygon points="2359.9 1024.45 2354.22 1037.18 2360.64 1038.38 2359.9 1024.45" style="fill:#efcbab"/><rect x="2316.62" y="1085.08" width="51.48" height="74.19" style="fill:#ed7d2b"/><rect x="2290.88" y="1085.08" width="51.48" height="74.19" style="fill:#f99746"/><path d="M446,1065.83s25.38-29.61,1.57-48.42c0,0-17.4-10.53-31.58-9.67,0,0,20.1,33.7,13.59,37s-19.69-39.17-19.69-39.17-39.58-3.84-52.32,2.28c0,0,33.84,27.7,26.72,29.35s-43.69-25.54-43.69-25.54-36.84,6.27-34.88,28.75,14.66,29.42,20.24,28.82,38.22-13.06,38.94-8.49-18.94,19.52-32.7,20.22c0,0,26,28.64,43.24,20.38s18.74-21.38,29.5-26.29,19.95-4.91,15.51.11-23.92,9.88-30.08,20.77-11.68,18.23,6.19,15.54,46.89-15.76,48.17-30.72Z" style="fill:#82b378"/><path d="M323.8,1041.07s100.07-3.86,122.17,24.76c0,0,4.89,14.64,19.93,28l2.34,6.39s-17.34-18.29-23.54-19.39C444.7,1080.8,454.4,1045.34,323.8,1041.07Z" style="fill:#82b378"/><path d="M465.9,1093.8s21.48,15.88,23,44.27l-3.9.35s-6.86-29.35-19.26-40.83S465.9,1093.8,465.9,1093.8Z" style="fill:#82b378"/><path d="M534.71,1028.59S494.34,1006,513.18,975.3c0,0,15.07-18.84,31.22-23.69,0,0-8.61,45.76,0,46.84s5.92-51.68,5.92-51.68,42.53-20.46,59.22-18.85c0,0-26.38,44.69-17.76,43.61S630,925.23,630,925.23s43.6-8.07,50.6,17.77-4.31,38.76-10.77,40.37-47.91,1.08-46.83,6.46,29.07,14,44.68,9.15c0,0-17.23,42.53-39.84,40.38s-29.6-16.15-43.6-17.23-24.23,2.69-17.23,6.46,30.69,1.24,42,10.85,20.46,15.53-.54,19.84-58.67,1.61-66.21-14.54Z" style="fill:#a8d29f"/><path d="M660.68,951.07s-113,36.61-126,77.52c0,0,.54,18.31-10.76,39.3V1076s11.84-27.46,18.3-31.23C542.25,1044.74,517,1009.21,660.68,951.07Z" style="fill:#82b378"/><path d="M524,1067.89s-17.44,26.47-7.5,58.7l4.49-1.2s-4.36-35.5,4.76-53.35S524,1067.89,524,1067.89Z" style="fill:#82b378"/><path d="M470.48,997.41s53.22-29.8,28.38-70.25c0,0-19.86-24.84-41.15-31.23,0,0,11.35,60.32,0,61.74s-7.81-68.12-7.81-68.12-56.06-27-78.06-24.84c0,0,34.77,58.9,23.42,57.48s-50.38-61-50.38-61-57.48-10.64-66.71,23.42,5.68,51.09,14.19,53.22,63.16,1.42,61.74,8.52-38.32,18.45-58.9,12.06c0,0,22.71,56.06,52.52,53.22s39-21.29,57.47-22.71,31.94,3.55,22.71,8.52-40.45,1.63-55.35,14.3-27,20.47.71,26.15,77.35,2.13,87.28-19.16Z" style="fill:#a8d29f"/><path d="M304.43,895.22s149,48.26,166.05,102.19c0,0-.71,24.13,14.19,51.8v10.65s-15.61-36.19-24.13-41.16C460.54,1018.7,493.9,971.86,304.43,895.22Z" style="fill:#82b378"/><path d="M484.67,1049.21s23,34.9,9.88,77.38l-5.91-1.59s5.74-46.79-6.29-70.32S484.67,1049.21,484.67,1049.21Z" style="fill:#82b378"/><path d="M368,1114.46a104.25,104.25,0,1,0,208.5,0Z" style="fill:#ed7d2b"/><path d="M436.64,1114.46c0,39.06,9.36,78.84,41.15,96.7,5.29,3,23-.25,28.79,1.77a104.28,104.28,0,0,0,69.94-98.47Z" style="fill:#f99746"/><path d="M366.58,1224H578a12.85,12.85,0,0,0-12.87-12.86H379.44A12.86,12.86,0,0,0,366.58,1224Z" style="fill:#ed7d2b"/><path d="M465.62,1224H578a12.85,12.85,0,0,0-12.87-12.86H478.48A12.86,12.86,0,0,0,465.62,1224Z" style="fill:#f99746"/><rect x="365.65" y="1114.46" width="214.3" height="3.2" transform="translate(945.6 2232.12) rotate(180)" style="fill:#b5453c"/></g></g></svg>